<svg width="100%" height="100%" viewBox="0 0 175 185" xml:space="preserve">
<title>Samurai Jack</title>
<desc>this content created for Nokia by Andrew Watanabe, zer01 inc. (www.zer01.com)</desc>

	<g id="bg">
		<rect id="white_bg" fill="#FFFFFF" x="0" y="0" width="175" height="185"/>
	<g id="aku_bg" display="none">
		<path fill="#AE0000" d="M175,185H0V0l175,0V185z"/>
		<path fill="#590101" d="M121.333,0C106.333,35,136,44.667,136,79s-29.141,68.731-17,70c22.333,2.333,34.667-48,34.667-48
			s11.334,22,0,39s-34,36-34,45H89c0-13.667-34-52.333-34-71.333S59,68,59,68s10.54,59.109,38.333,43.667
			c15-8.334,0.667-65.333-23.667-71.667C48.771,33.52,58,0,58,0h15c0,0,2.667,11.833,11.833,11.833S89,0,89,0H121.333z"/>
		<path fill="#810000" d="M25.667,0c0,0,26.655,44.104,7.667,57.667c-28,20-30-25-30-25S-5,76.666,13,100.333s32,53,22.333,84.667
			h24.333C73.5,168.834,73.5,157.333,73.5,157.333S58.667,168.667,50.333,154s12.833-30.499,20-40.333s3.333-25.333,3.333-25.333
			s-16.333,32.999-28.667,13c-12.333-20,32.001-51.333,51.667-59c0,0-41.333,4-34-42.333H25.667z"/>
		<path fill="#590101" d="M12.667,185c-3-7.667,0.333-17.667,0.333-17.667L0,185H12.667z"/>
		<path fill="#590101" d="M156,0c-8,41.333-1.333,70,19,104.333V48c0,0-14.667-18.667-12.667-48H156z"/>
	</g>
	<g id="sj_bg" display="none">
		<path fill="#AE0000" d="M175,185H0V0l175,0V185z"/>
		<path fill="#FF4000" d="M0,0h56.667c0,0-5.333,51.333,7,47.333s13.333-30,13.333-30s14.273,19.762,7.667,38.333
			C72.333,90.333,27.625,132.681,40,134c25,2.666,35.667-48.333,35.667-48.333s13.667,24.667,6,41.667s-43,31.667-43,57.667H0V0z"/>
		<path fill="#810000" d="M137.333,0C135.333,41.333,175,62.333,175,73.667s0-34,0-34s-26-12-30-39.667H137.333z"
			/>
		<path fill="#810000" d="M68,0c0,0,28.667,31,28.667,58.667c0,0,3.332-53,23.666-58.667H68z"/>
		<path fill="#F7841C" d="M0,185V0h53.333c0,0-7.443,48.494,7.667,49.333c18,1,18.333-22.667,18.333-22.667
			s9.114,17.025,0,34c-26.667,49.667-54,68-41.167,75.167C49.306,142.054,76,117.666,76,95.666c0,0,10.667,24.667-1.667,37
			C42.372,164.628,34,169.333,34,185H0z"/>
		<g id="spots">
			<path d="M20.25,1.75c0,0.966-0.671,1.75-1.5,1.75s-1.5-0.784-1.5-1.75S17.921,0,18.75,0S20.25,0.784,20.25,1.75z"/>
			<path d="M19.25,8.5c0,1.243-0.616,2.25-1.375,2.25S16.5,9.743,16.5,8.5s0.616-2.25,1.375-2.25S19.25,7.257,19.25,8.5z"/>
			<path d="M26.75,10.75c0,1.104-0.616,2-1.375,2S24,11.854,24,10.75s0.616-2,1.375-2S26.75,9.646,26.75,10.75z"/>
			<path d="M42.25,7c0,0.552-0.504,1-1.125,1S40,7.552,40,7s0.504-1,1.125-1S42.25,6.448,42.25,7z"/>
			<path d="M51.25,20.625c0,1.588-0.784,2.875-1.75,2.875s-1.75-1.287-1.75-2.875s0.784-2.875,1.75-2.875S51.25,19.037,51.25,20.625
				z"/>
			<path d="M40.25,14.5c0,0.552-0.616,1-1.375,1s-1.375-0.448-1.375-1s0.616-1,1.375-1S40.25,13.948,40.25,14.5z"/>
			<path d="M23,16.125c0,0.897-0.784,1.625-1.75,1.625s-1.75-0.728-1.75-1.625s0.784-1.625,1.75-1.625S23,15.228,23,16.125z"/>
			<path d="M25.75,15.5c0,0.552-0.336,1-0.75,1s-0.75-0.448-0.75-1s0.336-1,0.75-1S25.75,14.948,25.75,15.5z"/>
			<path d="M37.75,27.375c0,0.897-0.671,1.625-1.5,1.625s-1.5-0.728-1.5-1.625s0.671-1.625,1.5-1.625S37.75,26.478,37.75,27.375z"/>
			<path d="M43.25,32c0,0.829-0.56,1.5-1.25,1.5s-1.25-0.671-1.25-1.5s0.56-1.5,1.25-1.5S43.25,31.171,43.25,32z"/>
			<path d="M37.5,33.625c0,0.345-0.28,0.625-0.625,0.625s-0.625-0.28-0.625-0.625S36.53,33,36.875,33S37.5,33.28,37.5,33.625z"/>
			<path d="M28.75,39.75c0,0.552-0.671,1-1.5,1s-1.5-0.448-1.5-1s0.671-1,1.5-1S28.75,39.198,28.75,39.75z"/>
			<path d="M23.25,41.25c0,1.243-0.504,2.25-1.125,2.25S21,42.493,21,41.25S21.504,39,22.125,39S23.25,40.007,23.25,41.25z"/>
			<path d="M19.75,31.25c0,0.552-0.616,1-1.375,1S17,31.802,17,31.25s0.616-1,1.375-1S19.75,30.698,19.75,31.25z"/>
			<path d="M20.5,35.625c0,0.345-0.336,0.625-0.75,0.625S19,35.97,19,35.625S19.336,35,19.75,35S20.5,35.28,20.5,35.625z"/>
			<path d="M26,24.5c0,0.69-0.28,1.25-0.625,1.25s-0.625-0.56-0.625-1.25s0.28-1.25,0.625-1.25S26,23.81,26,24.5z"/>
			<path d="M29,29.375c0,0.483-0.224,0.875-0.5,0.875S28,29.858,28,29.375s0.224-0.875,0.5-0.875S29,28.892,29,29.375z"/>
			<path d="M37.5,33.625c0,0.621-0.448,1.125-1,1.125s-1-0.504-1-1.125s0.448-1.125,1-1.125S37.5,33.004,37.5,33.625z"/>
			<path d="M43,47.25c0,0.69-0.56,1.25-1.25,1.25s-1.25-0.56-1.25-1.25S41.06,46,41.75,46S43,46.56,43,47.25z"/>
			<path d="M44.75,48.625c0,0.483-0.224,0.875-0.5,0.875s-0.5-0.392-0.5-0.875s0.224-0.875,0.5-0.875S44.75,48.142,44.75,48.625z"/>
			<path d="M54.25,52.875c0,1.726-1.399,3.125-3.125,3.125S48,54.601,48,52.875s1.399-3.125,3.125-3.125S54.25,51.149,54.25,52.875z
				"/>
			<path d="M41.25,57.125c0,0.483-0.448,0.875-1,0.875s-1-0.392-1-0.875s0.448-0.875,1-0.875S41.25,56.642,41.25,57.125z"/>
			<path d="M43,60.375c0,0.621-0.28,1.125-0.625,1.125s-0.625-0.504-0.625-1.125s0.28-1.125,0.625-1.125S43,59.754,43,60.375z"/>
			<path d="M44.5,65.625c0,0.483-0.392,0.875-0.875,0.875s-0.875-0.392-0.875-0.875s0.392-0.875,0.875-0.875
				S44.5,65.142,44.5,65.625z"/>
			<path d="M35.5,63.5c0,0.829-0.784,1.5-1.75,1.5S32,64.329,32,63.5s0.784-1.5,1.75-1.5S35.5,62.671,35.5,63.5z"/>
			<path d="M39,64.25c0,0.552-0.336,1-0.75,1s-0.75-0.448-0.75-1s0.336-1,0.75-1S39,63.698,39,64.25z"/>
			<path d="M21.5,71c0,0.829-0.896,1.5-2,1.5s-2-0.671-2-1.5s0.896-1.5,2-1.5S21.5,70.171,21.5,71z"/>
			<path d="M22.25,59.375c0,0.483-0.448,0.875-1,0.875s-1-0.392-1-0.875s0.448-0.875,1-0.875S22.25,58.892,22.25,59.375z"/>
			<path d="M11.5,37.625c0,0.345-0.336,0.625-0.75,0.625S10,37.97,10,37.625S10.336,37,10.75,37S11.5,37.28,11.5,37.625z"/>
			<path d="M22.5,49.875c0,1.036-0.728,1.875-1.625,1.875s-1.625-0.839-1.625-1.875S19.978,48,20.875,48S22.5,48.839,22.5,49.875z"
				/>
			<path d="M8.5,41.625c0,0.345-0.504,0.625-1.125,0.625S6.25,41.97,6.25,41.625S6.754,41,7.375,41S8.5,41.28,8.5,41.625z"/>
			<path d="M9.75,46.5c0,0.829-0.56,1.5-1.25,1.5s-1.25-0.671-1.25-1.5S7.81,45,8.5,45S9.75,45.671,9.75,46.5z"/>
		</g>
	</g>
	</g>
	
<!-- BEGIN INTRO LOGO -->

	<g id="cn_logo">
		<path id="frame" fill="none" stroke="#FFFFFF" d="M161.508,110.742h-147.5v-37h147.5V110.742z">
<animateColor attributeName="stroke" values="#FFFFFF;#000000" dur="2s" begin="0s" end="2s" repeatDur="2s" fill="freeze"/>
		</path>
		<g id="checkers">
			<path d="M35.08,92.242H14.008v-18.5H35.08V92.242z"/>
			<path d="M56.151,110.742H35.08v-18.5h21.072V110.742z"/>
			<path d="M77.223,92.242H56.151v-18.5h21.071V92.242z"/>
			<path d="M119.367,92.242H98.295v-18.5h21.072V92.242z"/>
			<path d="M140.438,110.742h-21.07v-18.5h21.07V110.742z"/>
			<path d="M161.508,92.242h-21.07v-18.5h21.07V92.242z"/>
			<path d="M98.295,110.742H77.223v-18.5h21.072V110.742z"/>
<animateColor attributeName="fill" values="#FFFFFF;#000000" dur="2s" begin="0s" end="2s" repeatDur="2s" fill="freeze"/>
		</g>
		<g id="cartoon_network">
			<g>
			<path d="M54.67,89.742h-4.917l-1.661-1.834h-5l-0.922,1.834h-4.917l8.667-12.75L54.67,89.742z M46.842,85.742l-1.333-2.583
				l-1.083,2.583H46.842z"/>
			<path d="M81.003,76.992v3.75h5.084v9h4.831v-9h4.002v-3.75H81.003z"/>
			<path d="M59.628,94.992v3.75h5.084v9h4.831v-9h4.002v-3.75H59.628z"/>
			<path d="M109.176,94.617c4.166,0,8.082,2.5,8.082,6.583s-3.332,6.667-8.006,6.667c-4.672,0-7.91-2.083-7.91-6.25
				S105.01,94.617,109.176,94.617z M106.258,101.367c0,1.75,0.668,2.583,3.084,2.583s3-1.167,3-2.667s-1.344-2.416-3.172-2.416
				C107.676,98.867,106.258,99.617,106.258,101.367z"/>
			<path id="eo1" d="M130.176,76.492c4.166,0,8.082,2.5,8.082,6.583c0,4.083-3.332,6.667-8.006,6.667c-4.672,0-7.91-2.083-7.91-6.25
				S126.01,76.492,130.176,76.492z M127.258,83.242c0,1.75,0.668,2.583,3.084,2.583s3-1.167,3-2.667s-1.344-2.417-3.172-2.417
				C128.676,80.742,127.258,81.492,127.258,83.242z"/>
			<path d="M18.044,107.617V94.7l10.006,5.5v-5.333h4.583v12.75l-9.5-4.834v4.834H18.044z"/>
			<path d="M144.086,94.617v13.125h4.75v-4.834l4.248,4.834h5.918l-5.16-6.834l4.576-6.291h-5.666l-3.744,5.041l-0.09-5.041H144.086
				z"/>
<animateColor attributeName="fill" values="#FFFFFF;#000000" dur="2s" begin="0s" end="2s" repeatDur="2s" fill="freeze"/>
			</g>
			<path fill="#FFFFFF" d="M28.425,84.326l3.417,2c0,0-1.667,3.666-6.583,3.666s-8-2.917-8-6.583s2.5-6.583,7.5-6.583
				c5.833,0,7.167,3.75,7.167,3.75l-3.667,1.583c0,0-0.333-1.667-3.083-1.667c-1.583,0-3.083,1-3.083,2.833c0,1.833,1.167,3,2.75,3
				C27.675,86.326,28.425,84.326,28.425,84.326z"/>
			<path fill="#FFFFFF" d="M59.587,89.742v-12.75h9.916c0,0,4.005,0.917,4.005,3.75s-1.833,3.833-1.833,3.833l4.245,5.167h-6.167
				l-2.745-3.5h-2l-0.088,3.5H59.587z M67.925,82.742c0,0,0.917-0.083,0.917-1.5s-0.917-1.417-0.917-1.417h-3l0.083,2.917H67.925z"
				/>
			<path fill="#FFFFFF" d="M122.586,107.742v-12.75h9.916c0,0,4.006,0.916,4.006,3.75s-1.834,3.834-1.834,3.834l4.246,5.166h-6.168
				l-2.744-3.5h-2l-0.088,3.5H122.586z M130.924,100.742c0,0,0.918-0.084,0.918-1.5s-0.918-1.416-0.918-1.416h-3l0.084,2.916
				H130.924z"/>
			<path id="eo2" fill="#FFFFFF" d="M109.176,76.492c4.166,0,8.082,2.5,8.082,6.583c0,4.083-3.332,6.667-8.006,6.667
				c-4.672,0-7.91-2.083-7.91-6.25S105.01,76.492,109.176,76.492z M106.258,83.242c0,1.75,0.668,2.583,3.084,2.583s3-1.167,3-2.667
				s-1.344-2.417-3.172-2.417C107.676,80.742,106.258,81.492,106.258,83.242z"/>
			<path fill="#FFFFFF" d="M143.42,89.742V76.825l10.006,5.5v-5.333h4.582v12.75l-9.5-4.833v4.833H143.42z"/>
			<path fill="#FFFFFF" d="M40.425,107.575V94.909h10.5v2.833h-5.917v2h5.833v3.083h-5.833v1.834h5.833v3.083L40.425,107.575z"/>
			<path fill="#FFFFFF" d="M78.837,94.617h4.916l1.589,4.791l3.084-4.5l2.166,4.5l2.244-4.791h4.584l-5.75,13.125l-3.494-4l-3.089,4
				L78.837,94.617z"/>
		</g>
	</g>
	<g id="arm_reposition" transform="translate(59,200)">
	<g id="target_arm_rotate">
	<g id="arm" display="none" transform="translate(-78,-132)">
		<path fill="#CCFFFF" d="M92.677,68.152c0,0-17.942-18.073-35.546-33.121C39.526,19.982,10.247,0,10.247,0L0,2.938
			c0,0,19.667,9.15,52.62,37.48C71.327,56.502,86.586,72.85,86.586,72.85L92.677,68.152z"/>
		<path fill="#666666" d="M86.296,82.128l14.97-12.106l-4.494-4.785L81.7,76.69L86.296,82.128z"/>
		<path fill="#EAD728" d="M127.994,115.225l-7.258,4.077l-17.89-28.451l5.472-4.802L127.994,115.225z"/>
		<path d="M126.382,112.834l-10.863-1.83l4.233,6.732l2.538-10.971L126.382,112.834z"/>
		<path d="M121.295,105.292l-11.209-2.927l4.852,7.715l2.39-10.672L121.295,105.292z"/>
		<path d="M116.419,98.061l-10.944-3.029l4.186,6.657l2.172-10.429L116.419,98.061z"/>
		<path d="M104.814,93.981l0.771-4.577l6.248,1.856l-3.515-5.211l-5.472,4.802L104.814,93.981z"/>
		<path fill="#FFDE9C" d="M96.116,88.443L90,99.569l8.719,5.708l2.233-13.261l9.602-7.922L99.193,71.699l-12.091,9.777
			L96.116,88.443z"/>
		<path fill="#EFEFF4" d="M108.987,130.325c0,0-9.53,12.952-16.76,20.637l-22.538-3.795l19.029-46.534L108.987,130.325z"/>
		<path fill="#B4A3B5" d="M90.624,96.707c0,0,11.971,6.963,16.316,11.369c4.346,4.406,9.488,11.632,9.488,11.632l-7.441,10.618
			c0,0-9.871-16.077-22.042-26.041L90.624,96.707z"/>
	</g>
	</g>
	</g>
<set xlink:href="#arm" attributeName="display" to="inline" dur="0.5s" begin="3s" end="3.5s" fill="replace"/>

<animateTransform xlink:href="#target_arm_rotate" attributeName="transform" type="rotate" values="-70; bad ;90" dur="0.5s" begin="3s" end="3.5s" repeatDur="0.5s" fill="freeze"/>

<set xlink:href="#eo1" attributeName="display" to="none" dur="2s" begin="3.45s" end="5.45s" fill="replace"/>
<set xlink:href="#eo2" attributeName="display" to="none" dur="2s" begin="3.45s" end="5.45s" fill="replace"/>
	<g id="eyes_reposition" transform="translate(121.5,86)">
	<g id="target_eyes_scale">
	<g id="jack_eyes" display="none" transform="translate(-121.5,-86)">
		<path fill="#FF0000" d="M121.018,83.091"/>
		<path fill="#FF0000" stroke="#FFFFFF" stroke-width="3" d="M119.488,83.138l-22.199-6.303l1.576-0.788l2.41,0.463l0.51-0.324
			l-2.641-0.88l0.787-0.418l1.574,0.464l1.252-0.417l19.205,4.959l-0.945,3.197L119.488,83.138z"/>
		<path fill="#FFFFFF" stroke="#FFFFFF" stroke-width="3" d="M119.025,85.27c0,0-2.967-1.437-7.369-3.151
			c-4.402-1.714-7.973-2.734-7.973-2.734l-4.771,2.178l3.986,4.356c0,0,3.846,1.39,7.83,1.483
			C114.715,87.494,119.025,85.27,119.025,85.27z"/>
		<path stroke="#000000" d="M119.488,83.138l-22.199-6.303l1.576-0.788l2.41,0.463l0.51-0.324l-2.641-0.88l0.787-0.418l1.574,0.464
			l1.252-0.417l19.205,4.959l-0.945,3.197L119.488,83.138z"/>
		<path fill="none" stroke="#FFFFFF" stroke-width="3" d="M139.557,77.16L124.4,80.125l-1.76,4.032l16.963-4.866L139.557,77.16z"/>
		<path stroke="#000000" d="M139.557,77.16L124.4,80.125l-1.76,4.032l16.963-4.866L139.557,77.16z"/>
		<path fill="#FFFFFF" stroke="#000000" d="M119.025,85.27c0,0-2.967-1.437-7.369-3.151c-4.402-1.714-7.973-2.734-7.973-2.734
			l-4.771,2.178l3.986,4.356c0,0,3.846,1.39,7.83,1.483C114.715,87.494,119.025,85.27,119.025,85.27z"/>
		<path fill="#FFFFFF" stroke="#000000" d="M138.063,83.707l-5.736,3.742c-1.809,0-3.709,0.093-5.932,0
			c-2.225-0.093-4.311-1.9-4.311-1.9h-0.141l13.627-4.125l3.336,3.059"/>
		<path fill="none" stroke="#000000" d="M125.42,77.901l-5.979,13.07"/>
		<path fill="none" stroke="#000000" d="M121.018,83.091l1.576-5.33"/>
		<path fill="none" stroke="#000000" d="M121.58,86.3c0,0,5.787,2.909,7.316,2.909s3.662,0,3.662,0"/>
		<path d="M107.359,80.553c0,0-0.152,2.909,2.35,3.233c2.504,0.324,4.898-0.476,4.898-0.476l-2.391-0.972
			c0,0-1.023,1.216-2.322,0.429c-1.297-0.788-0.564-1.521-0.564-1.521L107.359,80.553z"/>
		<path d="M125.9,84.351c0,0,2.115,1.614,4.107,0.549c1.992-1.066,1.594-2.274,1.594-2.274l-1.418,0.429
			c0,0,0.244,0.78-0.824,1.335c-1.066,0.555-2.078-0.457-2.078-0.457L125.9,84.351z"/>
	</g>
	</g>
	</g>
<set xlink:href="#jack_eyes" attributeName="display" to="inline" dur="2.75s" begin="3.45s" end="6.2s" fill="replace"/>

<animateTransform xlink:href="#target_eyes_scale" attributeName="transform" type="scale" values="1;50" calcMode="spline" keySplines=".75 0 1 .25" dur="1s" begin="5.2s" end="6.2s" repeatDur="1s" fill="freeze"/>

<set id="intro_end" xlink:href="#cn_logo" attributeName="display" to="none" dur="indefinite" begin="6.2s" fill="freeze"/>

<!-- END INTRO LOGO -->

<!-- BEGIN JACK ANIMATION -->

	<g id="sj_eyes_only" display="none">
<set id="sje_anim" attributeName="display" to="inline" begin="intro_end.begin" end="sje_anim.begin+4s" fill="replace"/>
		<path fill="#E1CF8A" d="M175.5,134H0.5V45.5h175V134z"/>
		<g id="eyebrows">
			<path stroke="#000000" d="M84.5,73.5c0,0-30-9.25-39.75-12.25S0.5,50,0.5,50v7.75c0,0,19.5,5.5,35.25,10s48.5,18.5,48.5,18.5
				L84.5,73.5z"/>
			<path stroke="#000000" d="M91.25,84.5c0,0,28.802-12.115,45-17C152,62.75,175.5,57,175.5,57v-7c0,0-23.75,4.75-43.5,9.25
				S94.5,70.5,94.5,70.5V60L91.25,84.5z"/>
		</g>
		<g fill="none" stroke="#000000">
		<path d="M85.25,58.75c0,0-1.25,32.75-2,43.75s-2,31.5-2,31.5"/>
		<path d="M103,101.5c0,0,19.977,6.295,30,6c17-0.5,22.75-6.25,22.75-6.25"/>
		<path d="M76,101.25c0,0-17.25,6.25-30.5,8s-26.25-5.75-26.25-5.75"/>
		<g id="small_detail">
			<path d="M162.75,98.25l3.5-2"/>
			<path d="M161.25,100.25h2.5"/>
			<path d="M160,102h2.25"/>
			<path d="M167.25,101.75H169"/>
			<path d="M169.75,99l2.25-0.25"/>
			<path d="M17.75,100l-1.5-0.75"/>
			<path d="M12.75,97l-2-1.25"/>
			<path d="M11.5,99.25h1.75"/>
			<path d="M11.25,102l1.5-0.5"/>
			<path d="M15,101.5l2.25,1"/>
			<path d="M8,102.5l-2.25,0.25"/>
			<path d="M7,100.75L4.5,100"/>
			<path d="M89.25,63c1-4.5,3.25-10,3.25-10"/>
			<path d="M88,58.75c-0.75-3.25-2.5-6-2.5-6"/>
			<path d="M97,59.5c1.75-2.25,5-3.5,5-3.5"/>
			<path d="M103.75,54.75c2.5-1.25,5.25-1,5.25-1"/>
			<path d="M83.375,62.25c-2.875-3.125-6.5-5.875-6.5-5.875"/>
			<path d="M81.75,57c-2.375-2.5-5-4.125-5-4.125"/>
			<path d="M83,53.875l-1.25-1.75"/>
			<path d="M88,52.5v-3.25"/>
			<path d="M90,50.5l0.875-4.125"/>
			<path d="M95.375,53.25l2-2.25"/>
			<path d="M96.375,55.25l5-3.375"/>
			<path d="M91.625,59.875l1.75-2.5"/>
			<path d="M97.625,56.625l1.125-1"/>
			<path d="M109.375,52.25L110.25,52"/>
			<path d="M110.875,54.75L112.25,55"/>
			<path d="M73.25,51.375l-2.75-1.25"/>
			<path d="M71.625,54.75l-4.25-1.125"/>
		</g>
		</g>
		<g id="eyes">
			<path fill="#FFFFFF" stroke="#000000" d="M1.75,70.75c0,0,21-10.75,35.5-7s29,15,34.75,23.25s8.25,11.5,8.25,11.5
				s-37.5,4.5-53.5-1.25S1.75,70.75,1.75,70.75z"/>
			<path fill="#FFFFFF" stroke="#000000" d="M98.25,98.25c0,0,11.25-28.75,35-35s42,6.25,42,6.25s-10.783,19.438-21.5,25.25
				C139,102.75,98.25,98.25,98.25,98.25z"/>
			<path stroke="#000000" d="M29.625,63c0,0-3.125,11.25,13.25,17.375s22.875-0.25,22.875-0.25S56.625,71,45.75,66.5
				S29.625,63,29.625,63z"/>
			<path stroke="#000000" d="M110.5,78.125c0,0,8.892,9.078,23,3.375c17.625-7.125,14-20.125,14-20.125s-11-0.875-19.625,3.5
				S110.5,78.125,110.5,78.125z"/>
		</g>
		
<animateTransform attributeName="transform" type="translate" values="0;-175" dur="2s" begin="sje_anim.begin+2s" end="sje_anim.begin+4s" repeatDur="2s" fill="freeze"/>

	</g>	

	<g id="sj_full" display="none" transform="translate(175,0)">
<set id="sj_anim" attributeName="display" to="inline" begin="sje_anim.begin+2s" end="sje_anim.begin+8s" fill="replace"/>
<set xlink:href="#sj_bg" attributeName="display" to="inline" begin="sj_anim.begin" end="sj_anim.end" fill="replace"/>
<animateTransform attributeName="transform" type="translate" additive="sum" values="0;-175" dur="2s" begin="sje_anim.begin+2s" end="sje_anim.begin+4s" repeatDur="2s" fill="freeze"/>
		<g id="sj_static">
			<g id="robe">
				<path fill="#E3E3E5" d="M0.5,128.5c0,0,12-8,16.5-10.5s14-6.75,14-6.75l114-9c0,0,11.75,3.75,18.25,6.5s12.25,7,12.25,7V185
					h-17.25l-14.75-18.25L138.75,185H0.5V128.5z"/>
				<path fill="#9696B2" d="M56.25,102.25c0,0,9.75,24,16,33s24,24,24,24s6.25-9.5,9-15S108,132,108,132s1.5,0.25,3.5-0.75
					s5.75-17.75,7.5-24.75s2-11.5,2-11.5s7.25,1.75,12.5,3s11.5,4.25,11.5,4.25s-4.25,21.5-21.25,46.25S91.5,185,91.5,185h-20
					L85,171.5c0,0-18.625-10.125-32-27.75s-22-32.5-22-32.5L56.25,102.25z"/>
				<path fill="none" stroke="#9696B2" d="M28.667,152l13.5,31.833"/>
				<path fill="none" stroke="#9696B2" d="M143.333,165.833l5.834-17.333"/>
			</g>
			<path id="head" fill="#E1CF8A" d="M118.75,39.75c0,0,2.75,12.75,2.75,33.25c0,20.75-0.25,22-0.75,24.75
				s-6.092,31.357-9.25,33.5c-2.333,1.583-3.5,0.75-3.5,0.75s0.5,1-0.75,7.75s-11,19.5-11,19.5s-19-14-26.75-27.25
				s-13.25-29.75-13.25-29.75l6.25-15.5c0,0-5.5-9.5-5.5-15.25S66.25,59,66.25,59L67,42.5L118.75,39.75z"/>
			<path fill="none" stroke="#AA944F" d="M63.667,87c0,0,1.5,0.667,1.833,1.667s1,19.666,2.5,24.333
				s11.333,20.333,11.333,20.333l27.5-2"/>
			<path id="hair" d="M65.667,72.167l5.5,4.5c0,0-2.167-12-2-13.667s2.833-3.5,2.667-6.5S68,44.167,68,44.167
				L103,49l18.834-10.333l-55,2L66.167,38.5l6-4.667c0,0,0.5-1.667-0.167-2S70.333,31,70.333,31l-5.5,4.333c0,0-3-4.667-5.667-7.833
				s-7-7.667-7-7.667l-13,6.167c0,0,9.833,1.667,14.167,5s8.167,6.167,8.167,6.167l-2,2.167c0,0-1.5,1.5-0.667,2S61,42,61,42
				l3.333-2.667l1.5,2.833L65.667,72.167z"/>
			<g id="seyebrows">
				<path stroke="#000000" d="M99.5,53v9.667L71,45.833l26.167,10.833L99.5,53z"/>
				<path stroke="#000000" d="M119.667,46.5L105,56.167v4.167l16.334-12L119.667,46.5z"/>
			</g>
			<g id="seyes">
				<path fill="#FFFFFF" stroke="#000000" d="M72.833,51.167c0,0,5,11.833,7.5,13.167s19,6.5,19,6.5s-3.833-7.167-7.5-10.833
					S72.833,51.167,72.833,51.167z"/>
				<path fill="#FFFFFF" stroke="#000000" d="M105,68.333c0,0,6.001-1.833,7.834-3.5s7.833-9.333,7.833-9.333l-0.333-3.833
					c0,0-4.001,1.166-7.834,4.333s-7.666,7.5-7.666,7.5L105,68.333z"/>
				<path d="M78.25,53.125c0,0,0.917,3.875,5.583,6.542s10,3.167,10,3.167s-1.334-3.167-6.5-6.167S78.25,53.125,78.25,53.125z"/>
				<path d="M107.167,60.667c0,0,3.333,1.333,6.833-2s2.5-5.5,2.5-5.5s-2.833,1-4.833,2.833S107.167,60.667,107.167,60.667z"/>
			</g>
			<path fill="none" stroke="#000000" d="M107.167,71.167c2.667-0.667,6-2.5,6-2.5"/>
			<path fill="none" stroke="#000000" d="M94.667,72.167c-4.667,0.333-10.167-1-10.167-1"/>
			<path fill="none" stroke="#000000" d="M93.5,80.667l11.167-0.5l-0.333-26"/>
		</g>
		<g id="relocate_fist" transform="translate(-25,108)">
		<g id="fist">
			<path fill="#2F2F35" d="M165.375,185c0,0,0.875-11.125,2.75-22.25S171,140.625,171,140.625l4.5,2.5V185H165.375z"/>
			<path fill="#E1CF8A" d="M134,120.167c0,0,1.667-10,1.5-13.167S135,96,135,96l10.667-1.167l-0.334-3L156.5,77l30.667,17.333
				l-15.834,33l8.167,4.334l0.333,16.166l-13-8.333c0,0-8.833,0.666-11.833-1.667s-2.333-3.166-2.333-3.166L146,134.333
				c0,0-0.833-2.666-2.333-5.166s-2.5-4-2.5-4l1.333-5.334c0,0-2.166,0.001-4.833,0.334S134,120.167,134,120.167z"/>
			<path fill="none" stroke="#AA944F" d="M145.667,96c0,7.333-2.667,23-2.667,23"/>
			<path fill="none" stroke="#AA944F" d="M134.833,117.5h7c0,0-0.499-3.334-3.166-3.667s-3.167-0.166-3.167-0.166"/>
			<path fill="none" stroke="#AA944F" d="M143.833,118.167L164.5,119.5"/>
			<path fill="none" stroke="#AA944F" d="M145.167,107.333L169.5,109.5"/>
			<path fill="none" stroke="#AA944F" d="M146.167,92.333l31,5.334"/>
			<path fill="none" stroke="#AA944F" d="M159.167,91.667l2.333,3.166"/>
			<path fill="none" stroke="#AA944F" d="M148.5,128.667h9.333l-4.5,6.333"/>
			<path fill="none" stroke="#AA944F" d="M169.167,130.833l1.166-3"/>
<animateTransform attributeName="transform" type="translate" values="0,0;25,-108" dur="0.3s" begin="sj_anim.begin+2s" end="sj_anim.begin+2.3s" repeatDur="0.3s" fill="freeze"/>
<animateTransform attributeName="transform" type="translate" values="-25,108;25,-50" dur="0.2s" begin="sj_anim.begin+4s" end="sj_anim.begin+4.2s" repeatDur="0.2s" fill="freeze"/>
		</g>
		</g>
		<path id="m_closed" fill="none" stroke="#2F2F35" d="M79.25,91.75c0,0,6-6.75,8.5-6.75s18.75,1,18.75,1"/>
		<g id="open_0" display="none">
			<path id="m_wide_fill_1_" fill="#560C0C" d="M97,85.5c5.006,0,7.25-2,8.75-1.75s2,1.25,1.75,3
				s1.583,7.667-0.917,8.917s-7.75,0-12.75,1s-12.5,4.5-14.5,3.25s1.5-7.084,3.5-12.084S86.25,83.875,89,83.875S94.5,85.5,97,85.5z"
				/>
			<path id="teeth_1_" display="inline" fill="#FFFFFF" d="M103,93.125l3.375-10.25c0,0-20.875-0.375-21.75,0.75
				S79.875,93,79.875,93s3.875,1.75,11.25,1.875C98.633,95.002,103,93.125,103,93.125z"/>
			<path id="m_mask_1_" display="inline" fill="#E1CF8A" d="M97,85.5c5.006,0,7.25-2,8.75-1.75s2,1.25,1.75,3
				s1.583,7.667-0.917,8.917s-7.75,0-12.75,1s-12.5,4.5-14.5,3.25s1.5-7.084,3.5-12.084S86.25,83.875,89,83.875S94.5,85.5,97,85.5z
				 M79.333,103.292c4.375,3.875,25.875-2.125,30.375-3.375s2.459-10.084,2.709-14.459S111.875,82,108.5,82
				s-15.916,0.375-24.667-0.5c1.343,0.134-7.99,11.806-7.917,11.083C75.167,99.958,74.958,99.417,79.333,103.292z"/>
			<path id="m_wide_out_1_" display="inline" fill="none" stroke="#000000" d="M97,85.5c5.006,0,7.25-2,8.75-1.75s2,1.25,1.75,3
				s1.583,7.667-0.917,8.917s-7.75,0-12.75,1s-12.5,4.5-14.5,3.25s1.5-7.084,3.5-12.084S86.25,83.875,89,83.875S94.5,85.5,97,85.5z"
				/>

<animate attributeName="display" values="inline;none;inline;none;inline;none;inline;none" dur="1s" begin="sj_anim.begin+3s" end="indefinite" fill="replace"/>

		</g>
		<g id="open" display="none">
			<path id="m_wide_fill" fill="#560C0C" d="M97,85.5c5.006,0,7.25-2,8.75-1.75s2,1.25,1.75,3s1.25,25.75-1.25,27
				s-7.75,0-12.75,1S81,119.25,79,118s-1.75-15.25,0.25-20.25s7-13.875,9.75-13.875S94.5,85.5,97,85.5z"/>
			<path id="sj_teeth" fill="#FFFFFF" d="M103,93.125l3.375-10.25c0,0-20.875-0.375-21.75,0.75S79.875,93,79.875,93
				s3.875,1.75,11.25,1.875C98.633,95.002,103,93.125,103,93.125z"/>
			<path id="m_mask" fill="#E1CF8A" d="M97,85.5c5.006,0,7.25-2,8.75-1.75s2,1.25,1.75,3s1.25,25.75-1.25,27
				s-7.75,0-12.75,1S81,119.25,79,118s-1.75-15.25,0.25-20.25s7-13.875,9.75-13.875S94.5,85.5,97,85.5z M79,121.375
				c4.375,3.875,25.875-2.125,30.375-3.375s2.625-14.25,2.875-18.625S111.875,82,108.5,82s-13.125,0.5-21.875-0.375
				S76.659,97.565,75.75,106.5C75,113.875,74.625,117.5,79,121.375z"/>
			<path id="m_wide_out" fill="none" stroke="#000000" d="M97,85.5c5.006,0,7.25-2,8.75-1.75s2,1.25,1.75,3
				s1.25,25.75-1.25,27s-7.75,0-12.75,1S81,119.25,79,118s-1.75-15.25,0.25-20.25s7-13.875,9.75-13.875S94.5,85.5,97,85.5z"/>
				
<animate attributeName="display" values="inline;none;inline;none" dur="1s" begin="sj_anim.begin+3.5s" end="indefinite" fill="replace"/>
		</g>
	</g>
	
	<g id="je_mask" display="none">
		<path id="top_blk" d="M175.5,45.5H0.5V0h175V45.5z"/>
		<path id="bottom_blk" d="M175.5,185H0.5v-51h175V185z"/>
<set attributeName="display" to="inline" begin="intro_end.begin" end="sje_anim.begin+5s" fill="replace"/>
<animateColor attributeName="fill" values="#FFFFFF;#000000" dur="1s" begin="sje_anim.begin" end="sje_anim.begin+1s" repeatDur="1s" fill="freeze"/>
<animateTransform xlink:href="#top_blk" attributeName="transform" type="translate" values="0,0;0,-46" dur="1s" begin="sje_anim.begin+4s" end="sje_anim.begin+5s" repeatDur="1s" fill="freeze"/>
<animateTransform xlink:href="#bottom_blk" attributeName="transform" type="translate" values="0,0;0,51" dur="1s" begin="sje_anim.begin+4s" end="sje_anim.begin+5s" repeatDur="1s" fill="freeze"/>
	</g>
	
<!-- END JACK ANIMATION -->

<!-- BEGIN AKU ANIMATION -->
	
	<g id="aku_anim" display="none">
<set id="a_anim" xlink:href="#aku_anim" attributeName="display" to="inline" begin="sj_anim.end" end="a_anim.begin+5s" dur="5s" fill="replace"/>
<set xlink:href="#aku_bg" attributeName="display" to="inline" begin="sj_anim.end" end="a_anim.begin+5s" dur="5s" fill="replace"/>
	<g id="static">
		<path id="body_1" d="M175.5,0.5h-9.97l9.97,15.203V0.5z"/>
		<path id="body_2" d="M175.5,48.173l-17.522,11.566l-70.003-3.165L52.89,36.827L85.146,0.5h-35.84L19.098,45.019l55.808,22.528
			v10.752l-67.328-25.6L41.114,0.5H0.5v75.422l71.078,19.784l-52.224,22.016l9.472-30.464L0.5,126.744v7.619l73.382-4.353v55.49
			h94.693l1.819-52.673l5.105,0.269v-33.51l-2.291-1.063l2.291-0.809V78.278l-5.875,2.325l0.512-11.776L175.5,66.2V48.173z"/>
	</g>
	<g id="aku_face">
		<g id="af2c" display="none">
			<g id="upper_teeth2c" fill="#FFFFFF" stroke="#CC0000" stroke-width="2">
				<path d="M110.246,119.822l28.16,0.64l-4.225-8.959l-18.815-0.513
					L110.246,119.822z"/>
				<path d="M119.975,120.207l1.407-7.168"/>
				<path d="M129.702,120.207l-1.408-7.168"/>
			</g>
			<path id="beard2c" fill="#CC0000" d="M110.713,135.376c0,0-0.211,35.363-1.171,40.739c-0.7,3.923-2.73,7.335-5.418,8.893
				l-6.718-0.005c-4.072-2.216-5.912-7.735-5.912-7.735s-1.033,3.68-0.802,7.731L137.087,185l1.556-48.746
				c0,0-6.828,1.27-13.74,1.27C117.991,137.523,110.713,135.376,110.713,135.376z"/>
			<path id="m2c" fill="#64A33B" stroke="#CC0000" stroke-width="2" d="M123.303,80.999l37.887-5.76c0,0,3.188,4.274,3.328,10.88
				c0.315,14.715-18.185,14.715-18.185,14.715s-0.419,1.006-2.083,16.75c-0.85,8.027-2.167,16.167-5.333,19
				c-4.005,3.583-4.417,4.583-14.25,4.667c-9.494,0.081-13.058-1.869-14.75-5.417c-1.75-3.667-1.25-5.167-3.25-15.5
				c-2.153-11.125-2.833-18.667-2.833-18.667S80.5,104.333,80.678,85.863c0.087-8.992,6.016-11.264,6.016-11.264L123.303,80.999z
				 M117.667,115.75c-1.417,1-2.583,6.917-2.5,9.5c0.073,2.255,0.578,6.672,2.167,7.917c1.917,1.5,3.503,1.849,6.917,2
				c3.584,0.158,6.156-1.313,7.25-2.833c1.5-2.083,1.583-5.417,1.667-7.5c0.113-2.833-0.917-7.417-2.25-8.667
				c-0.95-0.89-2.333-1.917-5.822-1.899C121.747,114.285,119.454,114.489,117.667,115.75z"/>
		</g>
		<g id="upper_teeth" display="none" fill="#FFFFFF" stroke="#CC0000" stroke-width="2">
			<path d="M110.246,110.822l28.16,0.64l-4.225-8.959l-18.815-0.513
				L110.246,110.822z"/>
			<path d="M98.342,116.71c0,0,4.736-3.2,6.656-8.576s2.048-9.216,2.048-9.216
				l9.601,3.456c0,0-1.496,4.043-5.889,8.192C103.846,117.096,98.342,116.71,98.342,116.71z"/>
			<path d="M150.182,118.631c0,0-6.016-3.584-6.398-10.111
				c-0.385-6.527,0.64-9.983,0.64-9.983l-12.159,3.584c0,0,2.049,6.146,6.527,9.983C143.27,115.943,150.182,118.631,150.182,118.631
				z"/>
			<path d="M119.975,111.207l1.407-7.168"/>
			<path d="M129.702,111.207l-1.408-7.168"/>
		</g>
		<g id="af2b" display="none">
			<g id="lower_teeth2b" fill="#FFFFFF" stroke="#CC0000" stroke-width="2">
				<path d="M110.246,122.204l28.16,0.64l-6.157,8.489H115.75L110.246,122.204z"
					/>
				<path d="M97.189,117.981c0,0,4.607,1.664,6.527,6.527
					c1.922,4.864,1.922,9.855,1.922,9.855l10.879-2.688c0,0-1.168-6.563-5.761-9.729C104.998,117.981,97.189,117.981,97.189,117.981
					z"/>
				<path d="M150.438,117.725c0,0-3.584,1.024-6.144,7.296
					c-2.56,6.272-2.176,10.24-2.176,10.24l-10.88-2.943c0,0-0.512-3.841,5.504-8.961
					C142.758,118.235,150.438,117.725,150.438,117.725z"/>
				<path fill="none" stroke="#CC0000" stroke-width="2" d="M129.702,122.589l-1.792,8.191"/>
				<path fill="none" stroke="#CC0000" stroke-width="2" d="M119.975,122.589l1.023,8.576"/>
			</g>
			<path id="beard2b" fill="#CC0000" d="M110.713,129.603c0,0-0.211,35.363-1.171,40.739s-4.416,9.792-8.64,9.792
				c-6.528,0-9.408-8.64-9.408-8.64s-2.277,8.106,0.688,13.507L137.014,185c-0.185-1.637-0.017-2.947-0.017-2.947l1.646-51.572
				c0,0-6.828,1.27-13.74,1.27C117.991,131.75,110.713,129.603,110.713,129.603z"/>
			<path id="m2b" fill="#64A33B" stroke="#CC0000" stroke-width="2" d="M123.303,80.999l37.887-5.76c0,0,3.77,4.313,3.328,10.88
				c-0.354,10.621-12.484,11.838-12.484,11.838s5.424,4.791,3.76,20.534c-0.851,8.027-4.859,15.38-10.73,16.604
				c-5.52,1.634-10.913-1.293-20.565-1.571c-9.483-0.279-16.675,1.905-21.071,0.747c-3.819-1.322-7.856-4.503-10.521-14.662
				c-3.062-11.517,2.615-19.957,2.615-19.957s-14.547-0.074-14.841-13.79c-0.34-8.976,6.016-11.264,6.016-11.264L123.303,80.999z
				 M109.412,107.143c-5.38,0.5-9.1,6.979-9.186,11.982c-0.083,4.59,3.169,9.224,6.268,9.846c3.262,0.75,10.711-2.211,17.922-2.008
				c6.146,0.18,14.086,2.543,17.896,1.719c4.014-1.105,4.696-5.973,4.482-10.406c-0.2-4.809-3.852-9.917-7.909-10.477
				c-3.868-0.381-6.862,1.793-13.791,1.802C118.236,109.609,114.979,106.512,109.412,107.143z"/>
		</g>
		<g id="af1c" display="none">
			<g id="lower_teeth1c" fill="#FFFFFF" stroke="#CC0000" stroke-width="2">
				<path d="M110.246,157.371l28.16,0.64l-6.157,8.489H115.75L110.246,157.371z"
					/>
				<path d="M97.189,153.148c0,0,4.607,1.664,6.527,6.527
					c1.922,4.864,1.922,9.855,1.922,9.855l10.879-2.688c0,0-1.168-6.563-5.761-9.729C104.998,153.148,97.189,153.148,97.189,153.148
					z"/>
				<path d="M150.438,152.892c0,0-3.584,1.024-6.144,7.296
					c-2.56,6.272-2.176,10.24-2.176,10.24l-10.88-2.943c0,0-0.512-3.841,5.504-8.961
					C142.758,153.402,150.438,152.892,150.438,152.892z"/>
				<path fill="none" stroke="#CC0000" stroke-width="2" d="M129.702,157.756l-1.792,8.191"/>
				<path fill="none" stroke="#CC0000" stroke-width="2" d="M119.975,157.756l1.023,8.576"/>
			</g>
			<path id="beard1c" fill="#CC0000" d="M110.713,168.103L110.678,185h27.453l0.512-16.02c0,0-6.828,1.27-13.74,1.27
				C117.991,170.25,110.713,168.103,110.713,168.103z"/>
			<path id="m1c" fill="#64A33B" stroke="#CC0000" stroke-width="2" d="M123.303,80.999l37.887-5.76c0,0,4.353,4.352,3.328,10.88
				c-1.022,6.528-6.783,8.96-6.783,8.96s10.942,13.123,9.934,28.921c-0.85,13.268-6.333,41-18.65,46.543
				c-6.76,3.041-15.017,3.925-25.85,3.79c-9.493-0.119-20.51-0.353-26.18-4.8C83.866,159.242,79.908,140.75,79.167,125
				c-0.667-14.167,8.04-27.361,8.04-27.361s-5.76-2.814-6.528-11.776c-0.768-8.96,6.016-11.264,6.016-11.264L123.303,80.999z
				 M101.158,99.5c-9.344,0-14.658,18.738-14.658,26.167c0,10.668,4.667,30.333,12.667,36.5c3.649,2.813,13.325,4.078,24.333,4.333
				c8.706,0.203,17.107-0.706,23.5-3.833c7.833-3.833,13.134-28.972,13.333-38.333c0.167-7.833-6.694-23.962-13.479-23.833
				c-6.783,0.129-11.392,4.435-21.76,4.435C114.727,104.936,110.502,99.5,101.158,99.5z"/>
		</g>
		<g id="af1b" display="none">
			<g id="lower_teeth1b" fill="#FFFFFF" stroke="#CC0000" stroke-width="2">
				<path d="M110.246,133.626l28.16,0.64l-6.157,8.489H115.75L110.246,133.626z"
					/>
				<path d="M97.189,129.403c0,0,4.607,1.664,6.527,6.527
					c1.922,4.864,1.922,9.855,1.922,9.855l10.879-2.688c0,0-1.168-6.563-5.761-9.729C104.998,129.403,97.189,129.403,97.189,129.403
					z"/>
				<path d="M150.438,129.146c0,0-3.584,1.024-6.144,7.296
					c-2.56,6.272-2.176,10.24-2.176,10.24l-10.88-2.943c0,0-0.512-3.841,5.504-8.961
					C142.758,129.657,150.438,129.146,150.438,129.146z"/>
				<path fill="none" stroke="#CC0000" stroke-width="2" d="M129.702,134.011l-1.792,8.191"/>
				<path fill="none" stroke="#CC0000" stroke-width="2" d="M119.975,134.011l1.023,8.576"/>
			</g>
			<path id="beard1b" fill="#CC0000" d="M110.713,145.603c0,0,0.133,31.085-0.682,39.397h27.383l1.229-38.52
				c0,0-6.828,1.27-13.74,1.27C117.991,147.75,110.713,145.603,110.713,145.603z"/>
			<path id="m1b" fill="#64A33B" stroke="#CC0000" stroke-width="2" d="M123.303,80.999l37.887-5.76c0,0,4.353,4.352,3.328,10.88
				c-1.022,6.528-6.783,8.96-6.783,8.96s11.104,10.85,9.768,26.62c-0.851,10.647-6.943,27.797-17.39,30.376
				c-6.897,1.362-16.212-1.622-26.364-2.01c-9.484-0.38-20.402,2.663-26.787,1.056c-9.505-4.634-15.771-16.311-17.807-29.178
				c-2.318-13.039,8.052-24.305,8.052-24.305s-5.76-2.814-6.528-11.776c-0.768-8.96,6.016-11.264,6.016-11.264L123.303,80.999z
				 M101.158,99.018c-9.344,0-15.137,12.889-15.265,20.315c-0.12,8.798,5.213,21.055,11.517,24.138
				c4.129,1.407,15.623-1.097,26.631-0.842c8.706,0.203,19.562,2.848,26.021,1.22c7.18-1.981,10.471-17.75,10.314-25.823
				c-0.173-7.309-6.739-18.189-13.523-18.061s-11.393,4.97-21.76,4.97S110.502,99.018,101.158,99.018z"/>
		</g>
		<g id="af1a" display="none">
			<g id="lower_teeth1a" fill="#FFFFFF" stroke="#CC0000" stroke-width="2">
				<path d="M110.246,110.822l28.16,0.64l-6.157,8.489H115.75L110.246,110.822z"
					/>
				<path d="M97.189,106.6c0,0,4.607,1.664,6.527,6.527
					c1.922,4.864,1.922,9.855,1.922,9.855l10.879-2.688c0,0-1.168-6.563-5.761-9.729C104.998,106.6,97.189,106.6,97.189,106.6z"/>
				<path d="M150.438,106.343c0,0-3.584,1.024-6.144,7.296
					c-2.56,6.272-2.176,10.24-2.176,10.24l-10.88-2.943c0,0-0.512-3.841,5.504-8.961
					C142.758,106.854,150.438,106.343,150.438,106.343z"/>
				<path fill="none" stroke="#CC0000" stroke-width="2" d="M129.702,111.207l-1.792,8.191"/>
				<path fill="none" stroke="#CC0000" stroke-width="2" d="M119.975,111.207l1.023,8.576"/>
			</g>
			<path id="beard1a" fill="#CC0000" d="M110.713,121.517c0,0-0.211,35.363-1.171,40.739s-4.416,9.792-8.64,9.792
				c-6.528,0-9.408-8.64-9.408-8.64s-3.184,11.334,2.88,16.127c6.912,5.465,15.36-0.383,15.36-0.383L108.198,185h40.128
				c0,0,1.152-0.984,1.152-3.354s-0.961-4.224-0.961-4.224s-2.111,7.104-7.295,5.567c-5.186-1.537-4.226-9.023-4.226-9.023
				l1.646-51.572c0,0-6.828,1.27-13.74,1.27C117.991,123.664,110.713,121.517,110.713,121.517z"/>
			<path id="m1a" fill="#64A33B" stroke="#CC0000" stroke-width="2" d="M123.303,80.999l37.887-5.76c0,0,4.353,4.352,3.328,10.88
				c-1.022,6.528-6.783,8.96-6.783,8.96s11.265,8.576,9.601,24.319c-0.851,8.027-7.552,14.593-16.128,14.209
				c-7.034-0.315-17.408-7.168-26.88-7.81c-9.474-0.64-20.293,5.679-27.394,6.912c-5.888,1.022-14.462-3.84-17.792-13.824
				c-3.97-11.909,8.064-21.247,8.064-21.247s-5.76-2.815-6.528-11.777c-0.768-8.96,6.016-11.264,6.016-11.264L123.303,80.999z
				 M101.158,98.535c-9.344,0-15.616,7.04-15.872,14.464c-0.239,6.927,5.76,11.776,10.368,11.776c4.607,0,17.919-6.272,28.928-6.018
				c8.706,0.203,22.016,6.4,28.543,6.272c6.527-0.13,7.809-6.528,7.296-13.313c-0.513-6.783-6.784-12.417-13.567-12.287
				c-6.785,0.129-11.393,5.504-21.76,5.504S110.502,98.535,101.158,98.535z"/>
		</g>
<set xlink:href="#af1a" attributeName="display" to="inline" dur="0.5s" begin="a_anim.begin" fill="replace"/>
<set xlink:href="#af1b" attributeName="display" to="inline" dur="0.1s" begin="a_anim.begin+0.5s" fill="replace"/>
<set xlink:href="#af1c" attributeName="display" to="inline" dur="0.1s" begin="a_anim.begin+0.6s" fill="replace"/>
<set xlink:href="#af1b" attributeName="display" to="inline" dur="0.1s" begin="a_anim.begin+0.7s" fill="replace"/>
<set xlink:href="#af1a" attributeName="display" to="inline" dur="0.1s" begin="a_anim.begin+0.8s" fill="replace"/>
<set xlink:href="#af1b" attributeName="display" to="inline" dur="0.1s" begin="a_anim.begin+0.9s" fill="replace"/>
<set xlink:href="#af1c" attributeName="display" to="inline" dur="0.1s" begin="a_anim.begin+1s" fill="replace"/>
<set xlink:href="#af1b" attributeName="display" to="inline" dur="0.1s" begin="a_anim.begin+1.1s" fill="replace"/>
<set xlink:href="#af1a" attributeName="display" to="inline" dur="0.1s" begin="a_anim.begin+1.2s" fill="replace"/>
<set xlink:href="#af2b" attributeName="display" to="inline" dur="0.1s" begin="a_anim.begin+1.3s" fill="replace"/>
<set xlink:href="#af2c" attributeName="display" to="inline" dur="0.2s" begin="a_anim.begin+1.4s" fill="replace"/>
<set xlink:href="#af2b" attributeName="display" to="inline" dur="0.1s" begin="a_anim.begin+1.6s" fill="replace"/>
<set xlink:href="#af1a" attributeName="display" to="inline" dur="3.3s" begin="a_anim.begin+1.7s" fill="replace"/>

<set xlink:href="#upper_teeth" attributeName="display" to="inline" dur="1.4s" begin="a_anim.begin" fill="replace"/>
<set xlink:href="#upper_teeth" attributeName="display" to="inline" dur="3.3s" begin="a_anim.begin+1.7s" fill="replace"/>

		<g id="nose">
			<path fill="#FFFFFF" d="M114.47,75.75c0,0,3.456-0.256,5.248,1.152c1.792,1.408,3.584,2.176,3.584,2.176s1.152-1.152,3.2-2.048
				c2.048-0.896,5.376-1.92,5.376-1.92l0.768,10.496c0,0-0.128,0.512-0.896,1.536s-0.768,2.048-0.768,2.048s4.864-2.432,6.912-1.152
				c2.72,1.7,4.864,3.712,3.84,5.888c-1.024,2.176-13.44,8.448-15.616,8.448c-2.176,0-15.36-4.864-17.024-6.4
				c-1.665-1.536-0.824-4.697,1.408-6.016c2.816-1.664,7.552-0.256,7.552-0.256s0.127-0.896-1.152-1.664s-3.583-1.536-3.583-1.536
				L114.47,75.75z"/>
			<path fill="#CC0000" d="M121.638,97.382c0,0-2.048-3.456-4.608-4.48s-4.736-0.512-4.608,0.256c0.128,0.768,0,1.152,0.768,1.536
				C113.958,95.079,121.638,97.382,121.638,97.382z"/>
			<path fill="#CC0000" d="M127.398,97.254c0,0,4.096-4.224,5.888-5.12c1.792-0.896,2.944-0.512,3.072,0.128
				c0.128,0.64,0.384,1.664-0.384,1.92S127.398,97.254,127.398,97.254z"/>
		</g>
		<g id="flames" fill="#CC0000">
			<path id="f1" d="M85.786,77.403c0,0-1.664,8.959,5.376,12.8c7.04,3.84,14.336,2.304,14.336,2.304
				s0.768-3.968,3.2-4.736c2.432-0.768,5.248-0.64,5.248-0.64s1.92-2.176,1.92-5.376c0-3.2,0-4.608,0-4.608s1.451-7.788,2.943-11.52
				c1.28-3.2-1.92-7.168-1.92-7.168s3.974,1.102,2.56-2.432c-2.048-5.12-3.792-13.145-3.968-16.128
				c-0.128-2.176-0.384,6.912-6.656,4.096c-2.268-1.018,2.56-7.04,3.072-11.904c0,0-7.68,7.68-7.424,4.992
				c0.62-6.504-4.096-4.736-4.096-4.736s2.816,5.888,0.384,7.808c-4.263,3.365-4.224-1.792-4.224-1.792s-8.704,8.448-8.832,13.824
				c-0.087,3.691,0.768,2.176-0.128,7.424c-0.973,5.695-4.992,5.504-5.888,10.752c-0.318,1.863,0.512,4.096,1.664,5.248
				C85.624,77.881,85.786,77.403,85.786,77.403z"/>
			<path id="f2" d="M130.97,75.867c0,0-1.023,4.224,0.256,6.912s1.92,3.456,1.92,3.456
				s3.968-1.152,7.424,0c3.456,1.152,4.864,4.608,4.864,4.608s6.271,1.28,10.112-2.688c3.84-3.968,4.608-9.216,4.608-9.216
				s4.162-0.761,3.584-6.4c-0.512-4.992-0.128-5.12,0.256-7.552c0.386-2.442-0.207-0.263,0-3.584
				c0.128-2.048-2.048-4.096-2.048-4.096s-3.278,9.333-4.992,1.408c-1.024-4.736,5.76-9.6,2.176-12.544
				c-4.299-3.531-9.6-7.296-9.6-7.296s1.024,5.888-1.408,8.96c-3.887,4.909-3.712-2.816-3.712-2.816s-3.328,1.92-6.784,3.84
				c-3.786,2.103-4.318,4.229-3.456,7.68c0.768,3.072,4.48,1.792-0.64,7.168C127.946,69.569,130.97,75.867,130.97,75.867z"/>
			<path id="f3" d="M137.37,42.075c0,0-1.792,3.072,0.384,3.584s3.584-1.152,4.736-2.432
				c1.152-1.28,4.864-6.528,4.864-6.528s-1.403,2.21-1.024,4.992c0.384,2.816-2.048,8.192,1.792,8.064
				c3.84-0.128,2.93-2.594,4.48-5.888c1.023-2.176,1.28-8.448,1.28-8.448s1.664,2.944,2.432,6.912
				c0.768,3.968-0.768,6.656,2.048,6.528c2.816-0.128,3.712-4.096,3.712-4.096s0.128,6.912-1.536,8.576
				c-1.664,1.664-7.622,4.357-12.16,4.48c-4.736,0.128-15.488-0.768-15.616-5.888C132.634,46.811,137.37,42.075,137.37,42.075z"/>
			<path id="f4" d="M89.37,37.979c0,0,1.536,3.84,3.712,4.352c2.176,0.512,2.432-2.944,3.584-4.224
				c1.152-1.28,3.456-7.296,3.456-7.296s1.157,4.771,1.536,7.552c0.384,2.816-2.048,8.192,1.792,8.064
				c3.84-0.128,2.93-2.594,4.48-5.888c1.024-2.176,6.272-5.376,6.272-5.376s-2.176,3.839-1.408,7.808s-2.048,4.864,0.768,4.736
				c2.816-0.128,3.456-4.096,3.456-4.096s0.512,4.736-1.152,6.4c-1.664,1.664-7.622,4.358-12.16,4.48
				c-4.736,0.128-14.72-2.688-14.848-7.808C88.73,41.563,89.37,37.979,89.37,37.979z"/>
		</g>

<!-- THESE NEXT FOUR ANIMATIONS ARE THE OFFENDING ONES -->

<animate xlink:href="#f1" attributeName="d" values="
M85.786,77.403
c0,0-1.664,8.959,5.376,12.8
c7.04,3.84,14.336,2.304,14.336,2.304
s0.768-3.968,3.2-4.736
c2.432-0.768,5.248-0.64,5.248-0.64
s1.92-2.176,1.92-5.376
c0-3.2,0-4.608,0-4.608
s1.451-7.788,2.943-11.52
c1.28-3.2-1.92-7.168-1.92-7.168
s3.974,1.102,2.56-2.432
c-2.048-5.12-3.792-13.145-3.968-16.128
c-0.128-2.176-0.384,6.912-6.656,4.096
c-2.268-1.018,2.56-7.04,3.072-11.904
c0,0-7.68,7.68-7.424,4.992
c0.62-6.504-4.096-4.736-4.096-4.736
s2.816,5.888,0.384,7.808
c-4.263,3.365-4.224-1.792-4.224-1.792
s-8.704,8.448-8.832,13.824
c-0.087,3.691,0.768,2.176-0.128,7.424
c-0.973,5.695-4.992,5.504-5.888,10.752
c-0.318,1.863,0.512,4.096,1.664,5.248
C85.624,77.881,85.786,77.403,85.786,77.403
z;

M85.786,77.403
c0,0-1.664,8.959,5.376,12.8
c7.04,3.84,14.336,2.304,14.336,2.304
s0.768-3.968,3.2-4.736
c2.432-0.768,5.248-0.64,5.248-0.64
s1.92-2.176,1.92-5.376
c0-3.2,0-4.608,0-4.608
s4.351-3.2,3.711-7.168
c-0.64-3.968-3.968-2.176-3.968-2.176
s0.768-5.632,2.048-9.216
c1.431-4.007-3.584-12.032-5.76-14.08
c-4.12-3.878-6.001-1.735-5.76-7.04
c0.256-5.632,2.944-2.944,2.944-2.944
c0,0,1.024-5.504-3.584-7.68
c-1.669-0.788-1.408-3.968-1.408-3.968
s-3.584,3.968-2.944,9.984
c0.574,5.4-1.92,0-1.92,0
s-7.936,7.936-8.063,13.312
c-0.087,3.691,1.206,5.727-1.792,10.88
c-4.063,6.983-3.268,5.861-4.735,8.96
c-1.152,2.432-1.714,5.045-0.512,7.808
C85.402,76.763,85.786,77.403,85.786,77.403
z;

M85.786,77.403
c0,0-1.664,8.959,5.376,12.8
c7.04,3.84,14.336,2.304,14.336,2.304
s0.768-3.968,3.2-4.736
c2.432-0.768,5.248-0.64,5.248-0.64
s1.92-2.176,1.92-5.376
c0-3.2,0-4.608,0-4.608
s4.351-3.2,3.711-7.168
c-0.64-3.968-5.632-13.952-5.632-13.952
s0.512,6.656-3.456,5.12
c-3.968-1.536-3.456-9.728-1.536-9.728
c1.92,0,4.352-0.768,2.944-5.888
c-1.408,-5.12-2.432-6.272-2.432-6.272
c0,0-0.64,4.48-2.176,3.456
c-1.536-1.024,0.768-9.728,0.768-9.728
s-3.072,7.424-9.6,11.52
c-6.528,4.096-7.68,6.528-7.68,6.528
s5.503-1.152,2.431,0.896
c-3.072,2.048-5.322,4.063-8.319,9.216
c-4.096,7.04,0.256,3.712,0.64,7.04
c0.384,3.328-0.384,1.792-1.024,4.736
C83.866,75.867,85.786,77.403,85.786,77.403
z;

M85.786,77.403
c0,0-1.664,8.959,5.376,12.8
c7.04,3.84,14.336,2.304,14.336,2.304
s0.768-3.968,3.2-4.736
c2.432-0.768,5.248-0.64,5.248-0.64
s1.92-2.176,1.92-5.376
c0-3.2,0-4.608,0-4.608
s1.451-7.788,2.943-11.52
c1.28-3.2-1.92-7.168-1.92-7.168
s3.974,1.102,2.56-2.432
c-2.048-5.12-3.792-13.145-3.968-16.128
c-0.128-2.176-0.384,6.912-6.656,4.096
c-2.268-1.018,2.56-7.04,3.072-11.904
c0,0-7.68,7.68-7.424,4.992
c0.62-6.504-4.096-4.736-4.096-4.736
s2.816,5.888,0.384,7.808
c-4.263,3.365-4.224-1.792-4.224-1.792
s-8.704,8.448-8.832,13.824
c-0.087,3.691,0.768,2.176-0.128,7.424
c-0.973,5.695-4.992,5.504-5.888,10.752
c-0.318,1.863,0.512,4.096,1.664,5.248
C85.624,77.881,85.786,77.403,85.786,77.403
z"

dur="0.25s" begin="a_anim.begin" end="indefinite" repeatCount="indefinite" fill="freeze"/>

<animate xlink:href="#f2" attributeName="d" values="M130.97,75.867c0,0-1.023,4.224,0.256,6.912s1.92,3.456,1.92,3.456
				s3.968-1.152,7.424,0c3.456,1.152,4.864,4.608,4.864,4.608s6.271,1.28,10.112-2.688c3.84-3.968,4.608-9.216,4.608-9.216
				s4.162-0.761,3.584-6.4c-0.512-4.992-0.128-5.12,0.256-7.552c0.386-2.442-0.207-0.263,0-3.584
				c0.128-2.048-2.048-4.096-2.048-4.096s-3.278,9.333-4.992,1.408c-1.024-4.736,5.76-9.6,2.176-12.544
				c-4.299-3.531-9.6-7.296-9.6-7.296s1.024,5.888-1.408,8.96c-3.887,4.909-3.712-2.816-3.712-2.816s-3.328,1.92-6.784,3.84
				c-3.786,2.103-4.318,4.229-3.456,7.68c0.768,3.072,4.48,1.792-0.64,7.168C127.946,69.569,130.97,75.867,130.97,75.867z;

M130.97,75.867
c0,0-1.023,4.224,0.256,6.912
s1.92,3.456,1.92,3.456
s3.968-1.152,7.424,0
c3.456,1.152,4.864,4.608,4.864,4.608
s6.271,1.28,10.112-2.688
c3.84-3.968,4.608-9.216,4.608-9.216
s3.933-1.483,2.304-6.912
c-1.536-5.12,0.581-7.786,0.384-10.24
c-0.256-3.2-3.158-3.361-2.688-6.656
c0.384-2.688-1.024-6.016-1.024-6.016
s0.127,8.864-3.84,1.792
c-2.944-5.248,1.537-3.328-1.024-9.344
c-2.178-5.119-6.912-10.624-6.912-10.624
s-0.128,8.832-2.56,11.904
c-3.887,4.91-0.896-5.888-0.896-5.888
s-8.832,5.888-6.656,9.6
c1.683,2.871-4.352,2.304-1.792,5.632
c2.124,2.76-2.56,8.064-4.864,12.288
C128.199,68.852,130.97,75.867,130.97,75.867
z;

M130.97,75.867
c0,0-1.023,4.224,0.256,6.912
s1.92,3.456,1.92,3.456
s3.968-1.152,7.424,0
c3.456,1.152,4.864,4.608,4.864,4.608
s6.271,1.28,10.112-2.688
c3.84-3.968,4.608-9.216,4.608-9.216
s4.225-1.024,4.864-6.656
c0.639-5.632-3.457-4.224-3.584-9.472
c-0.128-5.248,0.384-3.2,0.384-6.528
c0-3.328-1.536-4.864-1.536-4.864
s-2.304,10.368-4.48,2.304
c-2.176-8.064,5.248-3.328,2.944-8.32
c-2.304-4.992-6.912-10.368-6.912-10.368
s3.329,3.968-1.408,8.064
c-4.736,4.096-2.048-3.712-2.048-3.712
s-0.896,2.432-7.68,7.04
c-6.784,4.608-2.654,4.87-1.792,8.32
c0.768,3.072-1.152,3.712-6.272,9.088
C127.05,69.697,130.97,75.867,130.97,75.867
z;

M130.97,75.867
c0,0-1.023,4.224,0.256,6.912
s1.92,3.456,1.92,3.456
s3.968-1.152,7.424,0c3.456,1.152,4.864,4.608,4.864,4.608s6.271,1.28,10.112-2.688c3.84-3.968,4.608-9.216,4.608-9.216
s4.162-0.761,3.584-6.4c-0.512-4.992-0.128-5.12,0.256-7.552c0.386-2.442-0.207-0.263,0-3.584
c0.128-2.048-2.048-4.096-2.048-4.096s-3.278,9.333-4.992,1.408c-1.024-4.736,5.76-9.6,2.176-12.544
c-4.299-3.531-9.6-7.296-9.6-7.296s1.024,5.888-1.408,8.96c-3.887,4.909-3.712-2.816-3.712-2.816s-3.328,1.92-6.784,3.84
c-3.786,2.103-4.318,4.229-3.456,7.68c0.768,3.072,4.48,1.792-0.64,7.168C127.946,69.569,130.97,75.867,130.97,75.867z" dur="0.25s" begin="a_anim.begin" end="indefinite" repeatCount="indefinite" fill="freeze"/>

<animate xlink:href="#f3" attributeName="d" values="
M137.37,42.075
c0,0-1.792,3.072,0.384,3.584
s3.584-1.152,4.736-2.432
c1.152-1.28,4.864-6.528,4.864-6.528
s-1.403,2.21-1.024,4.992
c0.384,2.816-2.048,8.192,1.792,8.064
c3.84-0.128,2.93-2.594,4.48-5.888
c1.023-2.176,1.28-8.448,1.28-8.448
s1.664,2.944,2.432,6.912
c0.768,3.968-0.768,6.656,2.048,6.528
c2.816-0.128,3.712-4.096,3.712-4.096
s0.128,6.912-1.536,8.576
c-1.664,1.664-7.622,4.357-12.16,4.48
c-4.736,0.128-15.488-0.768-15.616-5.888
C132.634,46.811,137.37,42.075,137.37,42.075
z;

M133.914,43.995
c0,0,1.152,4.096,3.328,4.608
s3.583-3.584,3.456-5.504
c-0.115-1.718-0.896-6.4-0.896-6.4
s3.357,5.696,4.864,8.064
c0.896,1.408,0.97,3.498,4.096,2.56
c1.28-0.384,1.193-1.799,0.512-5.376
c-0.512-2.688-4.992-7.04-4.992-7.04
s5.733,2.015,8.32,5.12
c2.56,3.072,3.072,5.888,4.479,5.376
c1.209-0.44,1.792-4.992,1.792-4.992
s2.815,18.176-2.561,18.304
c-8.274,0.197-9.414,5.125-13.952,5.248
c-4.736,0.128-10.624-0.256-8.192-5.504
C136.324,53.812,133.914,43.995,133.914,43.995
z;

M137.37,42.075c0,0-1.792,3.072,0.384,3.584s3.584-1.152,4.736-2.432
c1.152-1.28,4.864-6.528,4.864-6.528s-1.403,2.21-1.024,4.992c0.384,2.816-2.048,8.192,1.792,8.064
c3.84-0.128,2.93-2.594,4.48-5.888c1.023-2.176,1.28-8.448,1.28-8.448s1.664,2.944,2.432,6.912
c0.768,3.968-0.768,6.656,2.048,6.528c2.816-0.128,3.712-4.096,3.712-4.096s0.128,6.912-1.536,8.576
c-1.664,1.664-7.622,4.357-12.16,4.48c-4.736,0.128-15.488-0.768-15.616-5.888C132.634,46.811,137.37,42.075,137.37,42.075z" dur="0.3s" begin="a_anim.begin" end="indefinite" repeatCount="indefinite" fill="freeze"/>

<animate xlink:href="#f4" attributeName="d" values="
M89.37,37.979
c0,0,1.536,3.84,3.712,4.352
c2.176,0.512,2.432-2.944,3.584-4.224
c1.152-1.28,3.456-7.296,3.456-7.296
s1.157,4.771,1.536,7.552
c0.384,2.816-2.048,8.192,1.792,8.064
c3.84-0.128,2.93-2.594,4.48-5.888
c1.024-2.176,6.272-5.376,6.272-5.376
s-2.176,3.839-1.408,7.808
s-2.048,4.864,0.768,4.736
c2.816-0.128,3.456-4.096,3.456-4.096
s0.512,4.736-1.152,6.4
c-1.664,1.664-7.622,4.358-12.16,4.48
c-4.736,0.128-14.72-2.688-14.848-7.808
C88.73,41.563,89.37,37.979,89.37,37.979
z;

M93.978,39.643
c0,0-0.128,2.816,2.048,3.328
c2.177,0.512,4.409-3.257,2.688-3.2
c-3.84,0.128-3.456-7.936-3.456-7.936
s2.304,4.864,4.992,6.144
c2.566,1.222,1.92,2.048,3.968,1.536
c3.728-0.932,3.058-1.441,4.608-4.736
c1.024-2.176,0.256-6.784,0.256-6.784
s4.199,4.064,2.304,11.648
s-3.328,4.48-0.512,4.352
c2.816-0.128,3.84-6.272,3.84-6.272
s0.768,5.632,0.128,8.832
c-0.461,2.308-6.597,7.814-11.136,7.936
c-4.736,0.128-14.08,4.48-14.208-0.64
C89.371,48.73,93.978,39.643,93.978,39.643
z;

M89.37,37.979c0,0,1.536,3.84,3.712,4.352c2.176,0.512,2.432-2.944,3.584-4.224
				c1.152-1.28,3.456-7.296,3.456-7.296s1.157,4.771,1.536,7.552c0.384,2.816-2.048,8.192,1.792,8.064
				c3.84-0.128,2.93-2.594,4.48-5.888c1.024-2.176,6.272-5.376,6.272-5.376s-2.176,3.839-1.408,7.808s-2.048,4.864,0.768,4.736
				c2.816-0.128,3.456-4.096,3.456-4.096s0.512,4.736-1.152,6.4c-1.664,1.664-7.622,4.358-12.16,4.48
				c-4.736,0.128-14.72-2.688-14.848-7.808C88.73,41.563,89.37,37.979,89.37,37.979z" dur="0.3s" begin="a_anim.begin" end="indefinite" repeatCount="indefinite" fill="freeze"/>

		<g id="eyes">
			<g id="eyewhites" fill="#FFFFFF">
				<path d="M102,66.167c6.324,0.486,13.833,5.167,13,11.167s-3.602,8.273-3.602,8.273S111,85,109.333,85.167
					s-4.5,4.334-10.833,3.167s-11.5-6.5-10.667-12S95.5,65.667,102,66.167z"/>
				<path d="M143.333,65c7.541-0.279,14,4,14,9s-1.833,9-4.5,10.5s-7.644,2.515-7.644,2.515
					s-1.425-1.617-4.224-2.816s-6.144-0.512-6.144-0.512s-5.156-3.02-3.322-9.187S138.833,65.167,143.333,65z"/>
			</g>
			<g id="eyesmad">
				<path d="M88.998,73.319c0,0,3.902-10.666,16.752-6.694c13.75,4.25,8.208,14.629,8.208,14.629s-6.69-3.766-12.288-5.632
					C95.143,73.447,88.998,73.319,88.998,73.319z"/>
				<path d="M131.75,80.23c0,0-4.25-10.355,8.375-15.355c11.001-4.357,16.5,5.875,16.5,5.875s-7.468,0.265-13.482,2.697
					C137.126,75.878,131.75,80.23,131.75,80.23z"/>
				<path d="M108.326,85.606c0,0,0.973-0.204-4.864-1.28s-11.903-1.024-11.903-1.024h-1.537c0,0,2.625,4.208,7.729,5.072
					C106.068,89.783,108.326,85.606,108.326,85.606z"/>
				<path d="M155.875,81.5c0,0-2.109,2.827-4.797,4.106c-2.688,1.28-5.889,1.408-5.889,1.408s-1.664-1.664-4.224-2.816
					c-2.56-1.152-4.991-0.512-4.991-0.512s9.705-2.297,12.928-2.304S155.875,81.5,155.875,81.5z"/>
					
<animate xlink:href="#eyesmad" attributeName="display" values="inline;none;inline;none;inline" dur="5s" begin="a_anim.begin" repeatCount="indefinite" fill="freeze"/>

			</g>
			<g id="eyeswide">
				<path d="M99.125,83.5c0,1.795-1.595,3.25-3.563,3.25S92,85.295,92,83.5s1.595-3.25,3.563-3.25
					S99.125,81.705,99.125,83.5z"/>
				<path d="M143.25,82.75c0,1.795-1.335,2.826-3.25,2.375c-2.125-0.5-3.875-0.58-3.875-2.375
					s1.595-3.25,3.563-3.25S143.25,80.955,143.25,82.75z"/>
<animateTransform xlink:href="#eyeswide" attributeName="transform" type="translate" values="0,0;0,0;13,0;7,-5.4;0,0;0,0;0,0" dur="2s" begin="a_anim.begin+3s" repeatCount="indefinite" fill="freeze"/>

		</g>
			<g id="eyemasks" fill="#CC0000">
				<path d="M102,66.167c6.324,0.486,13.833,5.167,13,11.167s-3.602,8.273-3.602,8.273S111,85,109.333,85.167
					s-4.5,4.334-10.833,3.167s-11.5-6.5-10.667-12S95.5,65.667,102,66.167z M88,71.625c-5,6.5-0.375,13.5,4.25,17.125
					s12.5,0.375,14.125-0.875s5.875-1.5,5.875-1.5s1.625-1.125,3.125-9.625s-9.75-12.509-15.125-12.375
					C95.25,64.5,93,65.125,88,71.625z"/>
				<path d="M143.333,65c7.541-0.279,14,4,14,9s-1.833,9-4.5,10.5s-7.644,2.515-7.644,2.515
					s-1.425-1.617-4.224-2.816s-6.144-0.512-6.144-0.512s-5.156-3.02-3.322-9.187S138.833,65.167,143.333,65z M130.625,75.625
					c-0.75,5.875,1.875,9,5.625,8.875s7.875,3.375,7.875,3.375s1.125,0.625,7.125-0.375s6.25-8.125,7.375-14.5
					s-10.552-10.297-16.25-9.375C133.875,65,131.375,69.75,130.625,75.625z"/>
			</g>
		</g>
	</g>
	</g>
	
<!-- END AKU ANIMATION -->

<!-- BEGIN DRAW SWORD ANIMATION -->
	
	<g id="draw_sword" display="none">
<set id="ds_anim" xlink:href="#draw_sword" attributeName="display" to="inline" begin="a_anim.end" dur="2.5s" end="ds_anim.begin+2.5s" fill="replace"/>
	<path fill="#E3E3E5" d="M175.087,185h-175V0h175V185z"/>
	<path fill="#9696B2" d="M26.097,0l52,65.015l-68,74l76.667-1.667c0,0,45.333-50.667,55-57.667s33.323-30.333,33.323-30.333V0
		H26.097z"/>
	<path fill="#E1CF8A" d="M105.43,0l12,19.682L137.112,0H105.43z"/>
	<path fill="none" stroke="#9696B2" d="M0.087,140.015c18.347-1.181,124.99-4,175-0.333"/>
	<path fill="none" stroke="#E3E3E5" d="M116.43,21.682c-6,6.333-32.667,36.667-38,42.333"/>
	<path fill="none" stroke="#9696B2" d="M0.087,155.349c59.677-5,83.323-5.333,175,4"/>
	<path fill="none" stroke="#9696B2" d="M0.087,183.015c70.01-14,137.323-13.667,175-10.333"/>
	<g id="draw" transform="translate(-28,0)">
		<g id="hand">
			<path fill="#E1CF8A" d="M106.878,126.015l30-84l-39-5.667c0,0-7,8.667-19,8.667s-19-7-19-7s-4.667,7-14,7s-16-6.667-16-6.667
				s-5.667,5.667-13.333,5.667s-15-4.333-15-4.333l1.333,71.333c0,0,27.667,0,34,0c0,0-8.333,11.333-5.333,22.333
				c0,0,12.333-1.667,27.667,1s32,8,32,8l7-18L106.878,126.015z"/>
			<path fill="none" stroke="#AA944F" d="M26.545,61.682l-1.333,47"/>
			<path fill="none" stroke="#AA944F" d="M57.211,64.015l-7,47"/>
			<path fill="none" stroke="#AA944F" d="M38.211,112.015c32.667,2,58,11.667,58,11.667"/>
			<path fill="none" stroke="#AA944F" d="M38.545,131.015c0.333-6.333,5-15.333,5-15.333s4.333,3.333,4.333,6.667
				s-0.333,8.667-0.333,8.667"/>
			<path fill="none" stroke="#AA944F" d="M89.545,65.015l-14,51"/>
		</g>
		<g id="sword">
			<path d="M161.879,43.015c0,0-10.667,22-12.334,31.333l-22.244-5.516l-16.629,46.562l21.873,5.288c0,0-7.333,24.333-6,30
				s26.333-40.667,28.5-56.167S161.879,43.015,161.879,43.015z"/>
			<path fill="#9ABFED" d="M173.989,80.349c32.889,5.667,94.223,24.333,118.223,34l0.332,48c0,0-23.666-10.333-62.999-21.333
				c-39.334-11-72.104-16.46-72.104-16.46s1.065-14.989,3.771-24.54c2.705-9.551,12-19.667,12-19.667"/>
			<path fill="#AFCDF9" d="M210.212,124.555l82.24,24.457l-0.24-34.663c-19.43-7.825-63.324-21.549-96.789-29.5L210.212,124.555z"
				/>
			<path fill="#333333" d="M161.879,43.015l25.666,8.667c0,0-12.666,25-22,48.667c-9.333,23.667-16,55.333-16,55.333l-23-5
				c0,0,21.667-41.667,26-58.667S161.879,43.015,161.879,43.015z"/>
			<path fill="#D8A62A" d="M126.759,70.349l-13.923,38.985l39.375-30.318c0,0-2.333,5.333-5.333,16s-9,22.667-9,22.667
				L126.759,70.349z"/>
		</g>
	</g>
	<path fill="#333333" d="M147.764,78.015c0,0-3.667,9-9,21.333s-9.333,26.667-9.333,26.667l45.657,9.333v-51L147.764,78.015z"/>
	<path fill="#E1CF8A" d="M159.764,58.349c0,0-3.333,8-3.333,15.667s0.833,13.834,2.333,15.333s16.323,5,16.323,5v-29
		L159.764,58.349z"/>
	<path fill="none" stroke="#AA944F" d="M167.097,63.349l-1.333,13.333c0,0,3.332,0.667,5.666-0.667"/>
	</g>

<animateTransform xlink:href="#draw" attributeName="transform" type="translate" values="0,0;-109.33,-31.66" dur="1.5s" begin="ds_anim.begin+1s" additive="sum" fill="freeze"/>

<!-- END DRAW SWORD ANIMATION -->

<!-- BEGIN JACK ATTACK ANIMATION -->

	<g id="attack" display="none">
<set id="ja_anim" xlink:href="#attack" attributeName="display" to="inline" begin="ds_anim.end" dur="2s" end="ds_anim.end+2s" fill="replace"/>
<set xlink:href="#sj_bg" attributeName="display" to="inline" begin="ja_anim.begin" end="ja_anim.end" fill="replace"/>
	<g id="ja_body" transform="translate(-20,0)">
	<g>
		<path fill="#E1CF8A" d="M106.979,42.9c0,0-1.397,25.583-10,51c-11,32.5-37.729,54.729-44.25,61.25c-0.75,0.75-19-1-19-1
			l-6.5,19.5H0v-96.5c0,0,4.979-4,11.729-4s23-35.75,23-35.75L106.979,42.9z"/>
		<path d="M0,11.65c6.229-1.25,16.729-1.25,16.729-1.25s5.5,5,8.5,10s5.5,9.75,5.5,9.75l3.25-2l1,2l-3.25,1.75l1.5,3l84,2.75
			l-29.25,13L34.729,37.4c0,0,2.75,14.25,1.75,16.5s-13,12.5-13,12.5l-2.75,28.25l-9.75-4.75l2.75-15.5l-2-2.5l20.5-35.25l-3-3.25
			l-3.5,2l-1.75-1.5l2.75-1.75c0,0-6.25-5.25-12.5-9.75L0,14.9V11.65z"/>
		<path d="M40.479,41.9v6.75c0,0,9.75,6.5,17,10s18.75,9,18.75,9V52.4l-0.5,9.5c0,0-7.5-3-18-9.5S40.479,41.9,40.479,41.9z"/>
		<path fill="#FFFFFF" stroke="#000000" d="M39.479,52.4c0,0,12.25,1.75,20.25,6s10.75,15.5,10.75,15.5s-16-3-22.25-7.25
			S39.479,52.4,39.479,52.4z"/>
		<path d="M51.979,55.65c0,0-2.25,5.75,4.75,8.5s9.75,1.25,9.75,1.25s-1.75-4.5-6.75-7S51.979,55.65,51.979,55.65z"/>
		<path fill="none" stroke="#000000" d="M66.479,75.9c0,0-10,1.25-17.25-3.25"/>
		<path fill="none" stroke="#000000" d="M84.479,54.9l-9.5,37l-13.5,0.75"/>
		<path fill="#FFFFFF" stroke="#000000" d="M79.229,74.4c0,0,13-3.25,17-6.5s9-13.25,9-13.25s-5.25-0.25-12.75,5s-11,8.5-11,8.5
			L79.229,74.4z"/>
		<path d="M82.729,61.15c0,0,21-15.25,23-16s1,5,1,5s-9,6.75-15.5,11.25s-10.5,8-10.5,8L82.729,61.15z"/>
		<path d="M96.229,57.9c0,0,0,5.5-4.75,8s-8,1-8,1s1.75-2.25,4.75-4.5S96.229,57.9,96.229,57.9z"/>
		<path fill="none" stroke="#000000" d="M81.479,76.9c6.25-0.25,12.75-2,12.75-2"/>
		<path fill="none" stroke="#AA944F" d="M0.729,95.4c0,0,2,3.25,5,4.75l-4.75,21.75c0,0,5.25,15.5,14.25,22.75s16.25,9,16.25,9"/>
	</g>
	<g id="m_att2" display="none">
		<path fill="#990000" stroke="#000000" d="M72.229,101.9c0,0-1.25-4.625-22.875-3.25c-9.827,0.625-15.625,8.875-15.625,8.875
			s9.875-0.75,15.625-0.125s17.125,2,17.125,2S63.729,107.775,72.229,101.9z"/>
		<path fill="#FFFFFF" d="M38.854,102.65c0,0,10.645,2.294,17.5,2.875c7.375,0.625,8.625,0.625,8.625,0.625l5-5.75
			c0,0-5.875-1.884-15.125-2C44.854,98.275,38.854,102.65,38.854,102.65z"/>
		<path fill="none" stroke="#000000" d="M72.229,101.9c0,0-1.25-4.625-22.875-3.25c-9.827,0.625-15.625,8.875-15.625,8.875
			s9.875-0.75,15.625-0.125s17.125,2,17.125,2S63.729,107.775,72.229,101.9z"/>
	</g>
	<g id="m_att1">
		<path fill="#990000" d="M72.229,101.9c0,0-1.25-4.625-22.875-3.25c-9.827,0.625-16.75,11.375-16.75,11.375s8.125,6,13.875,6.625
			s16.625,0.75,16.625,0.75S59.229,112.525,72.229,101.9z"/>
		<path fill="#FFFFFF" d="M32.604,110.025l1.625-2.5c0,0,9.125,1.625,14.75,2.5s9.625,1.625,9.625,1.625l-0.5,5.375
			c0,0-8.173,0.183-13.25-0.875C38.854,114.9,32.604,110.025,32.604,110.025z"/>
		<path fill="#FFFFFF" d="M38.854,102.65c0,0,10.645,2.294,17.5,2.875c7.375,0.625,8.625,0.625,8.625,0.625l5-5.75
			c0,0-5.875-1.884-15.125-2C44.854,98.275,38.854,102.65,38.854,102.65z"/>
		<path fill="none" stroke="#000000" d="M72.229,101.9c0,0-1.25-4.625-22.875-3.25c-9.827,0.625-16.75,11.375-16.75,11.375
			s8.125,6,13.875,6.625s16.625,0.75,16.625,0.75S59.229,112.525,72.229,101.9z"/>
	</g>
	</g>
	<g id="sword_vert" transform="translate(0,20)">
		<path fill="#9ABFED" d="M140.979,-20h26.25v81.65h-26.5L140.979,-20z"/>
		<path fill="#E1CF8A" d="M175,71.9V185h-42.271c0,0-1.75-5.1-1.25-8.35s0.5-7,0.5-7s-4,2-7.75,2s-4-2.25-4-2.25l-1.75-17.5
			l-13.25,7.5l6.25-36.5l15.75-1.25l-4-4.5c0,0,2.5-1.75,2.5-6.75s-4.25-7.5-4.25-7.5s4.5-4,2.25-8.75s-8-5.75-8-5.75l-0.25-15
			C115.479,73.4,166.271,72.15,175,71.9z"/>
		<path fill="#333333" d="M108.979,48.4l1,25L175,71.9V57.65c0,0-20.771,5-37.271,2.5S108.979,48.4,108.979,48.4z"/>
		<path fill="#E3E3E5" d="M0,127.65l113.983-4.949L100.729,185H0V127.65z"/>
		<path fill="#9696B2" d="M83.702,124.017L66.729,185h34l13.254-62.298L83.702,124.017z"/>
		<path fill="none" stroke="#AA944F" d="M131.479,87.65L175,90.15"/>
		<path fill="none" stroke="#AA944F" d="M144.979,98.4L175,108.15"/>
		<path fill="none" stroke="#AA944F" d="M146.479,113.4L175,122.9"/>
		<path fill="none" stroke="#AA944F" d="M175,127.65l-49.021,2.25c0,0-1.25,6.25-1.25,11.75s2,7.5,2,7.5l43.75-8.25"/>
		<path fill="none" stroke="#AA944F" d="M133.822,147.813l-0.592,20.587"/>
		<path fill="none" stroke="#AA944F" d="M133.344,164.411l23.385-14.761"/>
		<path fill="none" stroke="#AA944F" d="M132.979,179.4l23.75-11.75"/>
		<path fill="none" stroke="#AA944F" d="M119.354,151.025l-1.125-16.125l7.268-2.17"/>
		<path fill="none" stroke="#AA944F" d="M118.979,156.9l8.75-1.75c0,0,3,0.25,3,3s-2.5,5.25-2.5,5.25l-8.418,1.817"/>
		<path fill="none" stroke="#AA944F" d="M127.979,122.9c0,0,1.5,1,0.75,3.5s-0.75,2.5-0.75,2.5"/>
	</g>
	</g>
<animateTransform xlink:href="#ja_body" attributeName="transform" type="translate" values="0,0;10,0" additive="sum" dur="2s" begin="ja_anim.begin" fill="freeze"/>
<animateTransform xlink:href="#sword_vert" attributeName="transform" type="translate" values="0,0;0,-20" additive="sum" dur="2s" begin="ja_anim.begin" fill="freeze"/>

<animate xlink:href="#m_att1" attributeName="display" values="inline;none;inline;inline;inline;none" dur="2s" begin="ja_anim.begin+0.5s" fill="freeze"/>
<animate xlink:href="#m_att2" attributeName="display" values="none;inline;none;none;none;inline" dur="2s" begin="ja_anim.begin+0.5s" fill="freeze"/>


<!-- END JACK ATTACK ANIMATION -->

<!-- BEGIN AKU ATTACK ANIMATION -->
	<g id="aa_attack" display="none">
<set id="aa_anim" xlink:href="#aa_attack" attributeName="display" to="inline" begin="ja_anim.end" dur="indefinite" end="aa_anim.begin+4.5s" fill="replace"/>
<set xlink:href="#aku_bg" attributeName="display" to="inline" begin="aa_anim.begin" end="aa_anim.end" fill="replace"/>
		<path d="M57.301,62.495L38.19,43.384L47.133,0h-17l-10,45.774l28.261,28.261v14.406L7.466,55.108l8-40L0,20.774v51.667
			l42.8,24.333l-32,15.667l4-15.333L0,118.774v16.667l44.466-5L43.133,185h87.333l-6-54.893L175,135.774v-17.333l-12.866-23
			l2,17.667l-33.334-16L175,68.441v-46l-17.2-8.667l4.334,39.333l-40,32.333v-15.54l29.229-29.229L143.466,0h-18.333l8,38.774
			L115.01,61.025L57.301,62.495z"/>
		<g id="a2_face_3" display="none">
			<path fill="#CC0000" d="M74.845,152.276c0,0-0.129,20.509-0.593,32.724h27.507l1.016-31.846
				c0,0-6.828,1.27-13.74,1.27C82.124,154.424,74.845,152.276,74.845,152.276z"/>
			<path fill="#64A33B" stroke="#CC0000" stroke-width="2" d="M86.572,75.308l37.887-5.76
				c0,0,4.354,4.352,3.328,10.88c-1.021,6.527-6.783,8.96-6.783,8.96l-8.204,14.554c0,0,6.667,9.167,5,23.667
				c-2.629,22.865-14.237,29-30.202,29c-15.964,0-24.249-11.067-26.797-29.667c-1.667-12.167,1.667-21.667,1.667-21.667
				L50.476,91.947c0,0-5.76-2.815-6.528-11.777c-0.768-8.959,6.016-11.263,6.016-11.263L86.572,75.308z"/>
			<path d="M107.83,124.697c0,12.841-8.432,23.25-18.833,23.25c-10.402,0-18.834-10.409-18.834-23.25
				s8.432-23.25,18.834-23.25C99.398,101.447,107.83,111.856,107.83,124.697z"/>
			<g fill="#FFFFFF" stroke="#CC0000">
				<path d="M73.057,112.316h31.877c0,0-4.907-10.196-15.938-10.869S73.057,112.316,73.057,112.316
					z"/>
				<path d="M83.966,112.316v-10.285"/>
				<path d="M94.799,112.316v-9.742"/>
			</g>
			<g fill="#FFFFFF" stroke="#CC0000">
				<path d="M78.61,136.136c0,0,5.689,2.139,10.856,2.139s10.146-2.812,10.146-2.812v8.154
					c0,0-2.086,3.657-10.616,3.657s-10.53-3.166-10.53-3.166L78.61,136.136z"/>
				<path d="M74.148,138.992c0,0,3.485-4.884,3.485-7.884s2.178,13.886,2.178,13.886
					L74.148,138.992z"/>
				<path d="M103.976,138.992c0,0-3.484-4.884-3.484-7.884s-2.178,13.886-2.178,13.886
					L103.976,138.992z"/>
				<path d="M84.879,137.817l1.251,9.324"/>
				<path d="M93.667,137.729l-0.97,9.279"/>
			</g>
			<path fill="none" stroke="#CC0000" stroke-width="2" d="M107.83,124.697c0,12.841-8.432,23.25-18.833,23.25
				c-10.402,0-18.834-10.409-18.834-23.25s8.432-23.25,18.834-23.25C99.398,101.447,107.83,111.856,107.83,124.697z"/>
		</g>
		<g id="a2_face_2" display="none">
			<path fill="#CC0000" d="M75.443,129.298c0,0-0.211,35.363-1.171,40.739s-4.416,9.792-8.64,9.792
				c-6.528,0-9.408-8.64-9.408-8.64s-2.317,8.247,0.766,13.646h44.77c-0.211-1.702-0.033-3.088-0.033-3.088l1.646-51.572
				c0,0-6.828,1.27-13.74,1.27C82.721,131.445,75.443,129.298,75.443,129.298z"/>
			<path fill="#64A33B" stroke="#CC0000" stroke-width="2" d="M86.572,75.308l37.887-5.76
				c0,0,4.354,4.352,3.328,10.88c-1.021,6.527-6.783,8.96-6.783,8.96l-4.93,10.054c0,0,25.14,8.421-1.598,28.474
				c-4.547,3.41-13.008,3.525-24.677,3.525c-10.833,0-23.604,0.396-29.596-4.423c-19.375-15.58-3.237-26.744-3.237-26.744
				l-6.491-8.327c0,0-5.76-2.815-6.528-11.777c-0.768-8.959,6.016-11.263,6.016-11.263L86.572,75.308z"/>
			<path fill="#64A33B" stroke="#CC0000" stroke-width="2" d="M62.8,116.274c0,0,1-6.833,23.833-6.333
				c21.167,0.463,27.833,5.333,27.833,5.333"/>
			<path stroke="#CC0000" stroke-width="2" d="M73.252,110.859c0,0,8.38,5.248,15.547,5.248
				s14.958-4.463,14.958-4.463s-7.264-1.643-15.14-1.643S73.252,110.859,73.252,110.859z"/>
		</g>
		<g id="a2_face_1">
			<path fill="#CC0000" d="M75.443,108.059c0,0-0.211,35.363-1.171,40.739s-4.416,9.792-8.64,9.792c-6.528,0-9.408-8.64-9.408-8.64
				s-3.184,11.334,2.88,16.127c6.912,5.465,15.36-0.383,15.36-0.383L69.634,185h32.833l-0.167-8.893c0,0,11.909,1.834,11.909-7.919
				c0-2.369-0.961-4.224-0.961-4.224s-2.111,7.104-7.295,5.567c-5.186-1.537-4.226-9.023-4.226-9.023l1.646-51.572
				c0,0-6.828,1.27-13.74,1.27C82.721,110.206,75.443,108.059,75.443,108.059z"/>
			<path fill="#64A33B" stroke="#CC0000" stroke-width="2" d="M86.572,75.308l37.887-5.76c0,0,4.354,4.352,3.328,10.88
				c-1.021,6.527-6.783,8.96-6.783,8.96s16.407,15.585,9.602,24.319s-9.806-3.933-16.129-3.099
				c-7.033-0.315-49.076-0.9-56.176,0.333c-5.888,1.022-9,12.333-15.888,2.253c-3.97-11.909,8.064-21.247,8.064-21.247
				s-5.76-2.815-6.528-11.777c-0.768-8.959,6.016-11.263,6.016-11.263L86.572,75.308z"/>
			<path fill="#64A33B" stroke="#CC0000" stroke-width="2" d="M48.3,109.441c1.333-3,4.5-6.833,6.833-6.833
				s55.167-0.333,61.333-0.333s8.166,2.5,8.833,5.667"/>
		</g>
<set xlink:href="#a2_face_1" attributeName="display" to="none" dur="0.1s" begin="aa_anim.begin+1s" fill="freeze"/>
<set xlink:href="#a2_face_2" attributeName="display" to="inline" dur="0.1s" begin="aa_anim.begin+1s" fill="replace"/>
<set xlink:href="#a2_face_3" attributeName="display" to="inline" dur="0.1s" begin="aa_anim.begin+1.1s" fill="freeze"/>
		<g id="fl_1" display="none" fill="#CC0000">
			<path d="M68.133,85.774c0,0-12.274,3.683-18-4.667c-4-5.833-2.5-10.667-2.5-10.667s-2.078-1.255-1.333-4.167
				c1.833-7.167-1.766-8.094-1.667-12.833c0.167-8,7.333-15,7.333-15s-0.533,7.567,3.333,4.667c4.667-3.5,0.177-6.908,2.167-12.333
				c1.833-5,6.167-8,6.167-8s-2.167,11.667,2.333,10.167s2.667-7.833,2.667-7.833s6.167,3.666,5.333,7.333s-2.144,7.773,0,11.167
				c2,3.167,6.167,5.167,7.833,12.833c1.497,6.889-1.832,9.834-2.666,13.167s0.165,4.166-0.834,6.833
				c-1,2.667-2.167,4.333-2.167,4.333s-4,0-5,1S68.133,85.774,68.133,85.774z"/>
			<path d="M96.133,80.274c0,0-3-4.667-2.167-8.667s-0.833-4.5,0-6.5s2.333-1.333,1.833-4.5s-2.067-4.01-1.166-7.167
				c1.333-4.667,7-8.333,7-8.333s-1.168,4.167,1.166,3.167c4.271-1.83,2.554-3.358,3.834-9.333c0.5-2.333,3-3.5,3-3.5
				s-0.667,5.5,2.333,3c3.305-2.753,3.667-7.833,3.667-7.833s2.674,5.23,2.5,7.833c-0.167,2.5,2.166,4.667,3.666,4.667s2-2.5,2-2.5
				s3.666,2.833,2,7s-3.543,9.019-2.333,11c1.833,3,3.333-1,3.333-1s1.667,1.794,1.667,5c0,7.333-5,8.833-5,8.833s0.833,6-4,9.667
				s-10.167,4-10.167,4s-1.552-3.368-5.666-4.833S96.133,80.274,96.133,80.274z"/>
			<path d="M109.799,29.274c0,0-4.166-3.5-1.666-6.833s7-8,7-8s1.166,1.667,1.166,4.5s-0.833,5-0.833,5
				s-0.667-2.667-2.5-1.667S109.799,29.274,109.799,29.274z"/>
			<path d="M63.633,20.108c0,0-2.333-3.5-0.833-5.333s4-4.667,3.167-5.5s4.833,3.833,3.5,5.5s-3,5.667-3,5.667
				S65.3,19.608,65.3,18.108S63.633,20.108,63.633,20.108z"/>
		</g>
		<g id="fl_2" display="none" fill="#CC0000">
			<path d="M81.633,58.941c1.497,6.889-1.666,7.334-2.5,10.667s0.165,4.166-0.834,6.833
				c-1,2.667-2.167,4.333-2.167,4.333s-4,0-5,1s-3,4-3,4s-12.274,3.683-18-4.667c-4-5.833-2.5-10.667-2.5-10.667
				c0.667-3.5-3.339-3.723-1.667-10.833c1.333-5.667,6.603-8.619,7-11.333c1-6.833-1-10.5,0.667-14.167
				c2.277-5.009,8.5-9.833,8.5-9.833l1,3.167c0,0,1-3.833,0.333-6.833c-0.534-2.402,3.5-6.5,3.5-6.5s-0.167,3.167,1,3.667
				s4.5,5.167,4.167,6.333s0,3.333,0,3.333s-2.219-4.024-3-2.333c-3,6.5,4.21,10.61,7.667,14.333c8.667,9.333,0,16,1.5,19
				S81.633,58.941,81.633,58.941z"/>
			<path d="M94.133,58.941c-1.365,2.901-1.501,3.5-0.834,7.667c0.343,2.139,1.5,1,0.667,5s2.167,8.667,2.167,8.667
				s3.386-1.466,7.5,0s5.666,4.833,5.666,4.833s5.334-0.333,10.167-4s4-9.667,4-9.667s4.667-0.667,4.667-8c0,0-0.5-4.667,0.5-8.5
				c0.91-3.489-2.667-5.667-2.667-5.667s-4.076,10.429-5.5,2.5c-1.167-6.5,5.383-6.542,3.333-11.667c-2-5-9.333-4.5-9.333-9.833
				c0,0-1.833,1.5-1.833,3.167s0.079,6.425-2.5,7.5c-4,1.667-2.834-4-2.834-4s-7.34,3.163-9.166,6.333c-3.167,5.5,2,6.667,1.166,9
				C97.914,56.151,95.467,56.107,94.133,58.941z"/>
			<path d="M115.133,27.441c0,0-2.001-1.666-0.834-3.833s1.667-4.5,1.667-4.5l2.5,5.5c0,0-0.666-1.5-1.833,0
				S115.133,27.441,115.133,27.441z"/>
		</g>
		<g id="fl_3" display="none" fill="#CC0000">
			<path d="M48.8,52.774c-0.287,4.731-0.667,3.333-2.5,10.5c-0.745,2.911,1.333,7.167,1.333,7.167
				s-1.5,4.833,2.5,10.667c5.726,8.35,18,4.667,18,4.667s2-3,3-4s5-1,5-1s1.167-1.667,2.167-4.333c0.999-2.667,0-3.5,0.834-6.833
				s4.78-8.768,3.333-15.667c-2.167-10.333-7.833-9.5-8.667-16s2.5-7.833,0.167-11S65.3,20.108,65.3,20.108s3.333,5.666-0.5,5.333
				s-0.833-7.5-0.833-7.5s-4.333,1.167-5,6s3.833,10.834-0.333,12.167S56.3,31.441,56.3,31.441s-6.167,1.167-8.5,7.5
				S49.133,47.274,48.8,52.774z"/>
			<path d="M96.133,45.774c-1.588,2.874-0.334,6.167,1,9c1.365,2.901-2.667,4.5-3.5,6.5s1.166,6.333,0.333,10.333
				s2.167,8.667,2.167,8.667s3.386-1.466,7.5,0s5.666,4.833,5.666,4.833s5.334-0.333,10.167-4s4-9.667,4-9.667s6.167-4,6.167-11.333
				c0-3.206-2.834-6.833-2.834-6.833s-1.667,6.167-4.5,1.5s3.5-8.5,2.5-12.667s-3.333-7.333-3.333-7.333s-0.833,4.167-2.333,1.667
				s2.166-4.166,0.666-7.833s-2.833-4.167-2.833-4.167s0.499,4-1.667,6.5s-5.5,5.167-5.5,5.167s3.5-0.5,2.667,1.667
				s-5.001,8.167-7.167,5.667s1.5-4,1.5-4S99.633,39.441,96.133,45.774z"/>
			<path d="M115.966,21.108c0,0-3.667-2.5-2-4.333s4-3,4-3s-1.001,0.667-1.167,3S115.966,21.108,115.966,21.108z"/>
			<path d="M65.966,14.941c0,0,3.833-0.667,3.333-3.167s-1.833-4.333-1.833-4.333s0.833,1.5,0,3.667
				S65.966,14.941,65.966,14.941z"/>
		</g>
		<g id="fl_4" display="none" fill="#CC0000">
			<path d="M50.133,50.608c0.793,5.946-3.357,3.502-6,13.833c-0.745,2.911,3.5,6,3.5,6s-1.5,4.833,2.5,10.667
				c5.726,8.35,18,4.667,18,4.667s2-3,3-4s5-1,5-1s1.167-1.667,2.167-4.333c0.999-2.667,0-3.5,0.834-6.833s2.457-4.801-1.667-12.5
				c-2.5-4.667,1-4.833-0.667-9.333c-1.667-4.5-5.167-8.667-5.167-8.667s0.333,7.167-3.5,4.5s-0.667-5.667-1.5-8
				s-2.667-4.167-2.667-4.167s0.333,4.5-1.833,5s-2.5-0.667-2.5-0.667s-4.333,1.167-9.5,7c-4.251,4.8-2.667,8.333-2.667,8.333
				S49.799,48.108,50.133,50.608z"/>
			<path d="M107.466,44.941c-0.435,3.254-10.667,6.833-12.5,11.333c-1.21,2.969-2.667,7-1,8.833
				c1.457,1.603,0.833,2.5,0,6.5s2.167,8.667,2.167,8.667s3.386-1.466,7.5,0s5.666,4.833,5.666,4.833s5.334-0.333,10.167-4
				s4-9.667,4-9.667s6.667,0.5,6.667-6.833c0-3.206-1.667-8-1.667-8s-2.501,6.166-4.667,4.333s1.834-8.5,0.834-14.167
				s-4.334-7.833-4.334-7.833s-2.333,2.5-2.833-1.833s2.499-3,1.333-6.833s-2.5-3.667-2.5-3.667s-2.334,3.167-8,6.667
				s-4,10.5-4,10.5S108.133,39.941,107.466,44.941z"/>
			<path d="M63.8,27.441c0,0-3.834-3,0.833-8.833l3.333,6c0,0,0.333-1.667-2.167-0.167S63.8,27.441,63.8,27.441z"/>
		</g>
		<g id="fl_5" display="none" fill="#CC0000">
			<path d="M78.133,57.608c7.511,3.977,1.834,8.667,1,12s0.165,4.166-0.834,6.833c-1,2.667-2.167,4.333-2.167,4.333
				s-4,0-5,1s-3,4-3,4s-12.274,3.683-18-4.667c-4-5.833-2.5-10.667-2.5-10.667s-2.745-7.589-2-10.5
				c1.833-7.167,9.568-13.261,9.667-18c0,0-3.667-1.333-1.333-4.5s8.833-7.5,9.333-10.167s2-9.5,2-9.5s1.166,10.667,3.333,13.167
				s4.833,6,4.833,6l1.167-2c0,0,4.667,5.167,4.667,8s-5.833,7.667-5.333,9.333C75.291,56.69,75.3,56.108,78.133,57.608z"/>
			<path d="M126.799,56.108c0,0,1.667,3.294,1.667,6.5c0,7.333-5,8.833-5,8.833s0.833,6-4,9.667s-10.167,4-10.167,4
				s-1.552-3.368-5.666-4.833s-7.5,0-7.5,0s-3-4.667-2.167-8.667s1.041-4.6,0-6.5c-3.833-7,6.833-10.833,6.333-14
				s-3.901-2.343-3-5.5c1.333-4.667,11.334-9.5,11.334-9.5s-4,4.167,0,4.5s6.268-2.327,5.5-4c-1.834-4,1-9.333,1-9.333
				s-0.501,5.167,1.166,6.5s7.333,1.833,7.5,5.333s-7.499,10.666-2.666,14.333s4-7.167,4-7.167s1.666,1.333,2.166,4.5
				S126.799,56.108,126.799,56.108z"/>
		</g>
		
<animate xlink:href="#fl_1" attributeName="display" values="inline;none;none;none;none" dur="0.5s" begin="aa_anim.begin" repeatCount="indefinite" fill="replace"/>
<animate xlink:href="#fl_2" attributeName="display" values="none;inline;none;none;none" dur="0.5s" begin="aa_anim.begin" repeatCount="indefinite" fill="replace"/>
<animate xlink:href="#fl_3" attributeName="display" values="none;none;inline;none;none" dur="0.5s" begin="aa_anim.begin" repeatCount="indefinite" fill="replace"/>
<animate xlink:href="#fl_4" attributeName="display" values="none;none;none;inline;none" dur="0.5s" begin="aa_anim.begin" repeatCount="indefinite" fill="replace"/>
<animate xlink:href="#fl_5" attributeName="display" values="none;none;none;none;inline" dur="0.5s" begin="aa_anim.begin" repeatCount="indefinite" fill="replace"/>

		<g>
			<path fill="#FFFFFF" d="M77.74,70.059c0,0,3.455-0.256,5.248,1.152c1.791,1.408,3.584,2.176,3.584,2.176
				s1.152-1.152,3.199-2.048c2.049-0.896,5.377-1.92,5.377-1.92l0.768,10.496c0,0-0.129,0.513-0.895,1.537
				c-0.768,1.023-0.77,2.047-0.77,2.047s4.863-2.432,6.912-1.151c2.721,1.7,4.863,3.712,3.84,5.888s-13.439,8.448-15.615,8.448
				c-2.178,0-15.36-4.864-17.023-6.399c-1.664-1.537-0.824-4.697,1.407-6.017c2.815-1.664,7.553-0.256,7.553-0.256
				s0.127-0.896-1.152-1.664s-3.583-1.536-3.583-1.536L77.74,70.059z"/>
			<path fill="#CC0000" d="M84.908,91.69c0,0-2.049-3.456-4.609-4.479c-2.559-1.024-4.734-0.512-4.606,0.256s0,1.152,0.769,1.535
				C77.228,89.388,84.908,91.69,84.908,91.69z"/>
			<path fill="#CC0000" d="M90.667,91.563c0,0,4.096-4.224,5.889-5.12c1.791-0.896,2.943-0.512,3.07,0.128
				c0.129,0.641,0.385,1.664-0.383,1.92S90.667,91.563,90.667,91.563z"/>
		</g>
		<g id="a2_eyes">
			<g fill="#FFFFFF">
				<path d="M65.27,60.476c6.324,0.486,13.833,5.167,13,11.167c-0.833,6-3.601,8.273-3.601,8.273
					s-0.398-0.607-2.065-0.44s-4.5,4.334-10.833,3.167s-11.5-6.5-10.667-12S58.77,59.976,65.27,60.476z"/>
				<path d="M106.603,59.309c7.541-0.279,14,4,14,9s-1.834,9-4.5,10.5c-2.668,1.5-7.645,2.516-7.645,2.516
					s-1.426-1.617-4.225-2.816s-6.146-0.512-6.146-0.512s-5.154-3.021-3.32-9.188S102.103,59.476,106.603,59.309z"/>
			</g>
			<g id="a2_eyes_3" display="none">
				<path d="M50.216,72.649c0,0,6.625-1.375,12.5,0.625s13.25,5.125,13.25,5.125l-1,1.875
					c0,0-6.375,1.375-8,2.375s-9.375,1.375-11.5-0.875S50.216,72.649,50.216,72.649z"/>
				<path d="M96.466,76.899c0,0,8.75-5.25,14.125-6.125s10.125,0.25,10.125,0.25s-0.25,6.5-3.75,8.125
					s-8.75,2.75-8.75,2.75s-5.75-4-6.25-3.75s-4.125,0.125-4.125,0.125L96.466,76.899z"/>
				<path d="M67.466,72.587c0,2.382-0.7,4.313-1.563,4.313s-1.563-1.931-1.563-4.313s0.7-4.313,1.563-4.313
					S67.466,70.205,67.466,72.587z"/>
				<path d="M106.216,71.337c0,2.382-0.699,4.313-1.563,4.313s-1.563-1.931-1.563-4.313s0.699-4.313,1.563-4.313
					S106.216,68.955,106.216,71.337z"/>
			</g>
			<g id="a2_eyes_2" display="none">
				<path d="M52.268,67.627c0,0,3.902-10.666,16.752-6.694c13.75,4.25,8.208,14.629,8.208,14.629
					s-6.69-3.766-12.288-5.632C58.412,67.756,52.268,67.627,52.268,67.627z"/>
				<path d="M95.019,74.539c0,0-4.25-10.355,8.375-15.355c11.002-4.357,16.5,5.875,16.5,5.875
					s-7.467,0.265-13.482,2.697C100.396,70.187,95.019,74.539,95.019,74.539z"/>
				<path d="M71.596,79.914c0,0,0.973-0.203-4.864-1.279S54.828,77.61,54.828,77.61h-1.537
					c0,0,2.625,4.208,7.729,5.072C69.338,84.092,71.596,79.914,71.596,79.914z"/>
				<path d="M119.144,75.809c0,0-2.109,2.827-4.797,4.105c-2.688,1.28-5.889,1.408-5.889,1.408
					s-1.664-1.664-4.225-2.815c-2.561-1.152-4.99-0.513-4.99-0.513s9.705-2.297,12.928-2.304S119.144,75.809,119.144,75.809z"/>
			</g>
			<g id="a2_eyes_1">
				<path d="M68.145,75.684c0,1.795-1.596,3.25-3.563,3.25c-1.969,0-3.563-1.455-3.563-3.25s1.596-3.25,3.563-3.25
					C66.551,72.434,68.145,73.889,68.145,75.684z"/>
				<path d="M112.269,74.934c0,1.795-0.883,3.091-3.25,3.091c-2.125,0.5-3.875-1.296-3.875-3.091s1.596-3.25,3.563-3.25
					C110.675,71.684,112.269,73.139,112.269,74.934z"/>
			</g>
			<g fill="#CC0000">
				<path d="M65.27,60.476c6.324,0.486,13.833,5.167,13,11.167c-0.833,6-3.601,8.273-3.601,8.273
					s-0.398-0.607-2.065-0.44s-4.5,4.334-10.833,3.167s-11.5-6.5-10.667-12S58.77,59.976,65.27,60.476z M51.27,65.934
					c-5,6.5-0.375,13.5,4.25,17.125s12.5,0.375,14.125-0.875s5.875-1.5,5.875-1.5s1.625-1.125,3.125-9.625
					c1.5-8.5-9.75-12.509-15.125-12.375C58.52,58.809,56.27,59.434,51.27,65.934z"/>
				<path d="M106.603,59.309c7.541-0.279,14,4,14,9s-1.834,9-4.5,10.5c-2.668,1.5-7.645,2.516-7.645,2.516
					s-1.426-1.617-4.225-2.816s-6.146-0.512-6.146-0.512s-5.154-3.021-3.32-9.188S102.103,59.476,106.603,59.309z M93.894,69.934
					c-0.75,5.875,1.875,9,5.625,8.875s7.875,3.375,7.875,3.375s1.125,0.625,7.125-0.375s6.25-8.125,7.375-14.5
					s-10.551-10.297-16.25-9.375C97.144,59.309,94.644,64.059,93.894,69.934z"/>
			</g>
		</g>
<set xlink:href="#a2_eyes_1" attributeName="display" to="none" dur="3s" begin="aa_anim.begin+1.5s" fill="replace"/>
<set xlink:href="#a2_eyes_2" attributeName="display" to="inline" dur="0.5s" begin="aa_anim.begin+1s" fill="replace"/>
<set xlink:href="#a2_eyes_3" attributeName="display" to="inline" dur="3s" begin="aa_anim.begin+1.5s" fill="replace"/>
		<g id="ring_relocate" transform="translate(88.5,124.3)">
		<g id="ring_target">
		<path id="ring" transform="translate(-88.5,-124.3)" display="none" fill="#FFFFFF" d="M97.404,124.337c0,4.901-3.974,8.875-8.875,8.875s-8.875-3.974-8.875-8.875
			s3.974-8.875,8.875-8.875S97.404,119.436,97.404,124.337z M88.529,118.837c-3.037,0-5.5,2.463-5.5,5.5s2.463,5.5,5.5,5.5
			s5.5-2.463,5.5-5.5S91.566,118.837,88.529,118.837z"/>
		</g>
		</g>
<set xlink:href="#ring" attributeName="display" to="inline" dur="3s" begin="aa_anim.begin+1.5s" fill="replace"/>
<animateTransform xlink:href="#ring_target" attributeName="transform" type="scale" values="1;10" dur="1s" begin="aa_anim.begin+1.5s" repeatCount="3" fill="replace"/>
	</g>

<!-- END AKU ATTACK ANIMATION -->

<!-- BEGIN JACK SPIRAL -->

<g id="spirals" display="none">
<set id="sp_anim" attributeName="display" to="inline" dur="indefinite" begin="aa_anim.end" end="indefinite" fill="replace"/>
	<g id="circles_relocate" transform="translate(124.5,94.7)">
	<g id="circles_target">
	<g id="circles" transform="translate(-191.5,-142.2)">
		<path d="M193.667,142.167c0-1.104-0.97-2-2.167-2s-2.167,0.896-2.167,2s0.97,2,2.167,2S193.667,143.271,193.667,142.167z"/>
		<path d="M191.5,146.833c-2.946,0-5.333-2.089-5.333-4.667s2.388-4.667,5.333-4.667s5.333,2.089,5.333,4.667
			S194.445,146.833,191.5,146.833z M201.167,143.167c0-4.51-3.88-8.167-8.667-8.167s-8.667,3.656-8.667,8.167
			s3.88,8.167,8.667,8.167S201.167,147.677,201.167,143.167z"/>
		<path d="M191.833,157.167c-8.653,0-15.667-6.193-15.667-13.833s7.014-13.833,15.667-13.833s15.667,6.193,15.667,13.833
			S200.486,157.167,191.833,157.167z M215.5,144.167c0-12.334-11.193-22.333-25-22.333c-13.808,0-25,9.999-25,22.333
			s11.193,22.333,25,22.333C204.307,166.5,215.5,156.5,215.5,144.167z"/>
		<path d="M188,183.833c-22.736,0-41.167-16.64-41.167-37.167S165.264,109.5,188,109.5s41.167,16.64,41.167,37.167
			S210.735,183.833,188,183.833z M242.333,148.167c0-27.706-25.818-50.167-57.667-50.167S127,120.46,127,148.167
			s25.818,50.167,57.667,50.167S242.333,175.873,242.333,148.167z"/>
		<path d="M258.5,148.75c0,37.141-33.803,67.25-75.5,67.25s-75.5-30.109-75.5-67.25S141.303,81.5,183,81.5
			S258.5,111.609,258.5,148.75z M185.75,67.5C130.66,67.5,86,106.339,86,154.25S130.66,241,185.75,241s99.75-38.839,99.75-86.75
			S240.84,67.5,185.75,67.5z"/>
		<path d="M310,161c0,57.714-54.509,104.5-121.75,104.5S66.5,218.714,66.5,161S121.009,56.5,188.25,56.5S310,103.286,310,161z
			 M191.5,39c-77.872,0-141,55.853-141,124.75s63.128,124.75,141,124.75s141-55.853,141-124.75S269.372,39,191.5,39z"/>
		<path d="M356.5,165.25C356.5,246.298,281.955,312,190,312c-91.956,0-166.5-65.702-166.5-146.75S98.044,18.5,190,18.5
			C281.955,18.5,356.5,84.202,356.5,165.25z M192.75,0C86.297,0,0,75.216,0,168s86.297,168,192.75,168S385.5,260.784,385.5,168
			S299.203,0,192.75,0z"/>
	</g>
	</g>
	</g>
	
	
<!-- EXTRA ANIMATIONS ON BACKGROUND SPIRALS (AS PERFORMANCE PERMITS) -->
<animateTransform xlink:href="#circles_target" attributeName="transform" type="rotate" values="0;-360" dur="3s" begin="sp_anim.begin" end="indefinite" repeatCount="indefinite" additive="sum" fill="freeze"/>	

<animate xlink:href="#jack_spin" attributeName="stroke" values="#000000;#FFFFFF" calcMode="discrete" dur="0.3s" begin="sp_anim.begin" end="indefinite" repeatCount="indefinite"/>
<animate xlink:href="#jack_spin_fill" attributeName="fill" values="#FFFFFF;#000000" calcMode="discrete" dur="0.3s" begin="sp_anim.begin" end="indefinite" repeatCount="indefinite"/>
<animate xlink:href="#circles" attributeName="fill" values="#FF33CC;#66CC00;#FF9933;#33FFCC;#FF33CC" dur="5s" begin="sp_anim.begin" end="indefinite" repeatCount="indefinite" fill="freeze"/>


	<g id="jack_spin_relocate" transform="translate(124,94)">
	<g id="jack_spin_target">
	<g id="jack_spin" stroke="#000000" transform="translate(-124,-94)">
		<path id="jack_spin_fill" fill="#FFFFFF" d="M192.357,115.955l1.788,1.668l2.625-8.25l-3.042,1.331
			c0.536-2.951,0.542-4.998,0.542-4.998l-8.167,2v2.833l-3.333,0.667c0,0-2.167,6.5-3.333,10s-4.5,11.5-4.5,11.5l-20.667,6.167
			c-10.833,2.333-27.5,1.333-27.5,1.333c6.5-3.667,19.5-14.667,19.5-14.667s10.333-1.833,24-17.833
			c7.929-9.282,8.167-25.667,8.167-25.667s-2.058-0.047-4.707-0.015l-0.084-2.402l-3.495,0.125l-0.041,2.373
			c-1.271,0.055-2.537,0.134-3.673,0.252c-0.759,0.079-1.538,0.184-2.313,0.302l-0.104-2.052l-3.606,0.625l-0.052,2.105
			c-2.53,0.519-4.425,1.02-4.425,1.02l1.667,5.833l1.333-0.167l1.167,0.5c0,0,5-1.667,7.833-3s7.667-1.5,7.667-1.5
			s-2.333,10.833-6,17.5s-15.833,14.5-23.333,17s-19.333-0.333-19.333-0.333l-2.667-10.333c0,0,6.833-2.667,7.167-3.667
			c2.667-4.333,3.167-16.667,3.167-16.667l5.667-1.333l9.333,4.5l2.667-3.333l-8-3.667l-6.5,0.167l6-3l8.167-0.5l2.5-4.667
			l-11.5,1.333l-6.333,4.833l4-5.833l7.833-4.833l-1.667-4.5l-8.333,5.667l-5,9l-0.167-8.5l3.333-8.167l-4.167-1l-2.5,8.167
			l0.5,11.333c0,0-4.833,1.333-7.167,0s-1.833-6-1.833-6l-4.167,0.333c0,0,0,5.5,3.167,8s11,0.667,11,0.667s0,9.333-2.667,12.667
			c-1.254,1.567-1.667,0.833-9,2.833s-12.833-0.333-12.833-0.333l-4.667-0.667c0,0,0.167-4.667,1.333-9.833
			s6.167-13.667,6.167-13.667l-5.5-4c-3.667,3.5-7,23.667-7,23.667l-2.667-3.333l2-0.667c0,0-1.5-8.333-1.167-14.667
			s2.667-14.333,2.667-14.333l6,6.333c0,0,10.333-8.833,18-12.833s23.333-9,23.333-9l2.167,1l-7-10.5l6.667,5c0,0,4.75-0.5,3-2.5
			s-9.5-4-9.5-4v-2h-1l-1,1.75c0,0-8.5,1-10.75,1.5s-10,3.25-10,3.25l-4.75,0.5l-3.25,5.25c0,0-25.75,13.75-35.25,21.75
			s-48,42.5-48,42.5l-5-3.5l0.75-11l-6-0.5l-0.583,10.5l5.833,5.833l-10-1l-4.167-6.833l-3.833,4.5l6.833,6.333l10,0.333l-5.667,4
			l-12.5,0.167l-0.833,4.833l13-1l8.333-6.167l-3.333,7.667l-8.5,5.333l3.333,4.833l9.833-6.667c0,0,1.5-10.5,2-10.667
			c0.333,5.333,6.167,12.5,6.167,12.5l4.333-3.833c0,0-3.667-3.167-5.5-6.667s-1.833-7.5-1.833-7.5l8.333-4.833
			c0,0,3.833,3.667,11.333,10.833s17.333,10.5,17.333,10.5c10.667-14.5,7.333-25,7.833-30.833s1.333-9.5,1.333-9.5
			s1.333,16,11.5,31.833c14.167,22.833,47.333,23.833,67.833,19.667s27.333-10.167,27.333-10.167l0.833-1.333l2-0.333
			c0,0,0.648-1.47,1.933-4.115l1.358,2.156l3.375-5.875l-2.929,0.087c0.532-1.049,1.117-2.188,1.763-3.42
			C191.321,118.671,191.894,117.292,192.357,115.955z"/>
		<g fill="none">
		<path d="M43.771,106.207l-6,4.333"/>
		<path d="M45.073,97.525c0,0,11.031,1.015,17.198,4.348s11.149,15.619,11.149,15.619"/>
		<path d="M37.779,104.03c0,0,8.324,1.51,14.325,7.51s14.333,20.333,14.333,20.333"/>
		<path d="M76.519,97.225l20.003-24.8"/>
		<path d="M95.419,83.86L80.421,98.858"/>
		<path d="M77.1,99.79l17.504-4.25"/>
		<path d="M93.898,95.711c0,0,6.207,14.829,16.54,19.162s16.5,5.333,16.5,5.333"/>
		<path d="M98.104,65.874c0,0-0.5-1,0-1.5s10.952-14.23,10.952-14.23"/>
		<path d="M102.771,61.04l10.5-8.5c0,0,3.833-1.833,5,0.833s-2,5.833-2,5.833l-8.5,7
			c0,0-0.167-1.833-1.667-3.333S102.771,61.04,102.771,61.04z"/>
		<path d="M105.441,58.878c0,0,0.579,0.579,1.829,1.829s0.086,4.035,0.086,4.035"/>
		<path d="M111.813,53.72c0,0,2.042,0.571,3.125,1.654s1.333,3.833,1.333,3.833"/>
		<path d="M84.075,64.737c0,0-0.138,5.47,0.696,10.47s1.953,9.366,1.953,9.366"/>
		<path d="M74.771,71.374l7.476,18.75"/>
		<path d="M77.604,84.374c0,0-1.526,4.634-2,7.167"/>
		<path d="M77.531,101.48l16.999-4.389"/>
		<path d="M95.158,98.346l-16.63,6.552"/>
		<path d="M79.208,106.953l16.574-7.435"/>
		<path d="M86.668,103.606c0,0,5.77,11.934,14.436,18.268c17.333,12.667,30.916,14.882,30.916,14.882"
			/>
		<path d="M89.247,102.449c0,0,1.258,5.523,16.141,16.141c17.883,13.618,33.781,12.742,33.781,12.742"
			/>
		<path d="M103.104,113.874c0,0,10.167,8.5,22.833,11s19.86,1.064,19.86,1.064"/>
		<path d="M121.279,143.82l5.491-3.613c0,0-13.167-0.833-24.5-8.5s-15.667-17-15.667-17"/>
		<path d="M146.756,125.426l5.924-7.722"/>
		<path d="M119.771,103.707c0,0,0,4.666,0,8.333s2.136,6.938,2.136,6.938"/>
		<path d="M112.125,104.452c0,0,0,3.755,0,6.088s0.864,5.37,0.864,5.37"/>
		<path d="M124.271,109.874l-4.5,0.833"/>
		<path d="M117.513,43.927l-0.907,0.907v2.665c0,0,5.29-3.5,8.79-4.375s8.375-1.625,8.375-1.625
			l3.955-2.25l2.42,7.5l5.292,3.625"/>
		<path d="M138.146,44.874l-2.25,1.25l-6.434-3.875l2.666-0.48l3.893,2.856L138.146,44.874z"/>
		<path d="M139.396,47.749h-3.125l-0.625,4.875h1.375c0,0,0-2.125,0.75-2.875
			S139.396,47.749,139.396,47.749z"/>
		<path d="M136.17,48.534l-12.149,6.34l-3.25-1"/>
		<path d="M120.896,50.374c1.25,1.25,4,1.25,4,1.25"/>
		<path d="M125.059,54.332v1.667"/>
		<path d="M126.849,42.783c0,0-4.674,4.737-4.453,5.84c0.375,1.875,4.5,2.375,4.5,2.375
			s4.5-3.25,4.375-4.75S126.849,42.783,126.849,42.783z"/>
		<path d="M126.771,53.499c0,0-0.5,1.875,0,2.125s2,0.375,2,0.375"/>
		<path d="M131.646,50.874c0,0,3.125,0.5,3.375,1.125s0,1.5,0,1.5"/>
		<path d="M124.896,47.749c0,1.381,4.25,0.625,4-1S124.896,47.124,124.896,47.749z"/>
		<path d="M128.521,53.749c0.426,0.852,4,0.375,3.625-0.875S128.271,53.249,128.521,53.749z"/>
		<path d="M103.289,76.536l4.16,6.932l-7.492,2.607"/>
		<path d="M109.186,80.232l-7.767,0.774"/>
		<path d="M99.439,88.17l4.041,5.275"/>
		<path d="M98.387,92.945l4.257,5.511l-5.417,3.55l0.043-3.133"/>
		<path d="M102.271,102.707v1.792"/>
		<path d="M102.271,103.499l-4.795-5.803l5.848-3.488"/>
		<path d="M98.618,91.841l6.274-2.868l-3.939-6.495"/>
		<path d="M98.861,104.499l8.076-1.125c0,0-0.667,2.586-0.667,4c0,1-0.375,1.625-0.375,1.625
			l-2.914,0.535"/>
		<path d="M178.417,82.63c0,0-7.896,0.494-10.771,0.494s-10.125,2.5-10.125,2.5l1.417,4.417"/>
		<path d="M164.01,83.707l-2.115,3.917l2.367,1.433"/>
		<path d="M165.784,83.331l-1.889,3.543l2.254,1.442"/>
		<path d="M183.104,131.54c0,0,2.542-7.417,3.917-8.792s5.125-13.625,5.125-13.625l-6.042,1.417
			l-0.583,2.583"/>
		<path d="M179.437,121.874l5.854-5.854l1.729,6.729"/>
		<path d="M180.496,118.032l4.9-3.408l3.25,4.799"/>
		<path d="M187.646,110.249l-0.625,2.875"/>
		<path d="M189.521,109.999l-1,2.875"/>
		<path d="M191.271,109.374l-1.25,3.125"/>
		<path d="M16.396,100.249l3,0.25l-0.5,2.25l-2.5,0.25"/>
		<path d="M4.771,112.749l2.125-1.875l1.625,2.125l-1.625,1.625"/>
		<path d="M3.521,127.249l0.25-2.875h2.5v2.625"/>
		<path d="M15.771,137.124l-1.75-2.125l1.625-1.75l2.25,2.375"/>
		<path d="M34.021,126.624l-2.375,2l1.125,1.375l2.5-1.625"/>
		</g>
<animateTransform xlink:href="#jack_spin_target" attributeName="transform" type="scale" values="1.5;0.5;1.5" dur="6s" begin="sp_anim.begin" end="indefinite" repeatCount="indefinite" additive="sum" fill="freeze"/>
<animateTransform xlink:href="#jack_spin_target" attributeName="transform" type="rotate" values="0;360" dur="3s" begin="sp_anim.begin" end="indefinite" repeatCount="indefinite" additive="sum" fill="freeze"/>

<animate xlink:href="#jack_spin_fill" attributeName="fill" values="#3366FF;#FF0000;#99FF00;#3366FF" dur="7s" begin="sp_anim.begin" end="indefinite" repeatCount="indefinite" fill="freeze"/>


	</g>
	</g>
	</g>
</g>

<!-- END JACK SPIRAL -->

<rect id="border" x="0" y="0" width="175" height="185" fill="none" stroke="#000000"/>

</svg>
